<svg id="svg" version="1.1" xmlns="http://www.w3.org/2000/svg" xmlns:xlink="http://www.w3.org/1999/xlink" width="400" height="231" viewBox="0, 0, 400,231"><g id="svgg"><path id="path0" d="M113.861 23.708 C 113.786 23.784,113.774 23.978,113.836 24.139 C 114.014 24.604,112.832 24.726,108.128 24.726 C 105.735 24.726,103.249 24.839,102.602 24.978 C 101.620 25.188,101.335 25.169,100.866 24.862 C 100.097 24.358,99.827 24.401,99.827 25.026 C 99.827 25.689,99.421 26.112,98.785 26.112 C 98.517 26.112,98.096 26.260,97.849 26.441 C 97.585 26.634,97.138 26.717,96.765 26.643 C 96.212 26.533,96.129 26.589,96.129 27.075 C 96.129 27.428,95.799 27.937,95.229 28.461 C 94.733 28.917,94.210 29.510,94.065 29.781 C 93.888 30.112,93.579 30.272,93.115 30.272 C 92.502 30.272,92.457 30.318,92.698 30.703 C 93.086 31.324,92.785 31.889,92.066 31.889 C 91.536 31.889,91.476 31.959,91.621 32.409 C 92.001 33.596,91.890 34.080,91.219 34.157 C 90.544 34.235,90.298 35.209,90.821 35.732 C 91.144 36.055,91.135 158.987,90.811 159.310 C 90.457 159.664,90.541 159.908,91.017 159.908 C 91.729 159.908,92.084 160.513,91.773 161.196 C 91.386 162.045,91.440 162.218,92.093 162.218 C 92.788 162.218,93.029 162.691,92.673 163.356 C 92.446 163.780,92.480 163.836,92.975 163.836 C 93.367 163.836,93.766 164.145,94.312 164.870 C 94.739 165.439,95.272 165.966,95.494 166.041 C 95.716 166.116,95.898 166.272,95.898 166.387 C 95.898 166.503,96.210 166.758,96.592 166.956 C 97.068 167.202,97.285 167.486,97.285 167.866 C 97.285 168.386,97.325 168.402,97.997 168.149 C 98.758 167.861,99.518 168.419,99.264 169.079 C 99.203 169.237,99.242 169.422,99.350 169.489 C 99.459 169.556,99.607 169.455,99.680 169.265 C 100.000 168.430,103.293 169.096,103.293 169.996 L 103.293 170.537 200.116 170.537 C 296.206 170.537,296.938 170.534,296.938 170.083 C 296.938 169.198,299.525 168.536,300.230 169.241 C 300.736 169.746,300.867 169.710,300.867 169.064 C 300.867 168.297,301.400 167.893,301.992 168.210 C 302.704 168.591,302.909 168.512,302.989 167.824 C 303.037 167.404,303.217 167.164,303.524 167.111 C 303.778 167.068,304.112 166.871,304.265 166.674 C 304.459 166.425,304.757 166.359,305.243 166.456 C 306.045 166.616,306.479 166.105,306.258 165.259 C 306.186 164.983,306.265 164.591,306.434 164.388 C 306.603 164.184,306.852 163.795,306.987 163.522 C 307.128 163.237,307.498 162.996,307.862 162.954 C 308.500 162.880,308.684 162.595,308.261 162.334 C 307.710 161.994,308.016 161.054,308.723 160.913 C 309.423 160.773,309.636 160.481,309.157 160.322 C 308.830 160.213,308.833 159.735,309.183 156.441 C 309.445 153.975,309.755 153.094,310.140 153.718 C 310.545 154.373,310.587 147.772,310.524 93.241 L 310.456 35.009 309.951 35.078 C 309.150 35.189,308.488 33.129,309.185 32.698 C 309.641 32.416,309.405 31.918,308.781 31.847 C 308.305 31.792,308.087 31.595,307.915 31.063 C 307.787 30.672,307.501 30.171,307.279 29.949 C 307.057 29.727,306.875 29.469,306.875 29.376 C 306.875 29.074,304.925 27.222,304.391 27.016 C 304.010 26.870,303.871 26.629,303.871 26.118 C 303.871 25.341,303.730 25.278,303.088 25.764 C 302.487 26.219,301.791 25.824,301.791 25.028 C 301.791 24.443,301.776 24.437,301.341 24.830 C 300.937 25.195,300.701 25.211,298.994 24.981 C 297.913 24.836,293.556 24.724,288.871 24.722 C 280.541 24.718,280.268 24.695,280.002 23.975 C 279.852 23.569,114.266 23.304,113.861 23.708 M299.187 34.723 L 300.058 35.594 300.243 50.090 C 300.345 58.063,300.387 85.283,300.336 110.578 L 300.242 156.568 299.571 157.743 C 299.202 158.389,298.543 159.218,298.106 159.586 L 297.312 160.254 280.199 160.401 C 270.786 160.481,252.218 160.559,238.937 160.574 C 199.877 160.618,197.305 160.710,198.699 162.009 C 200.399 163.593,198.671 166.513,196.142 166.330 C 193.951 166.171,193.114 164.412,193.953 161.730 C 194.102 161.253,194.053 161.086,193.720 160.936 C 193.488 160.831,174.529 160.669,151.589 160.575 C 128.648 160.481,108.371 160.365,106.528 160.317 L 103.177 160.230 102.137 159.475 C 99.736 157.730,99.798 159.550,99.878 92.772 L 99.942 38.475 100.479 37.204 C 101.030 35.897,102.012 34.662,102.499 34.662 C 102.650 34.662,102.898 34.512,103.050 34.329 C 103.497 33.791,100.682 33.805,201.440 33.830 L 298.317 33.853 299.187 34.723 M242.476 47.040 C 240.927 47.207,239.366 47.496,239.006 47.682 C 238.647 47.868,237.864 48.093,237.266 48.183 C 236.668 48.273,236.059 48.491,235.912 48.668 C 235.765 48.844,235.536 48.989,235.403 48.989 C 234.995 48.989,232.131 50.438,231.950 50.737 C 231.856 50.891,231.493 51.089,231.143 51.177 C 230.793 51.265,230.350 51.487,230.158 51.670 C 229.966 51.854,229.393 52.310,228.885 52.684 C 228.377 53.058,227.713 53.549,227.411 53.776 C 226.730 54.286,224.427 56.629,223.801 57.447 C 223.547 57.779,223.053 58.392,222.704 58.808 C 222.354 59.224,222.068 59.675,222.068 59.811 C 222.068 59.947,221.938 60.141,221.779 60.243 C 221.456 60.449,220.916 61.339,220.244 62.771 C 219.998 63.297,219.691 63.792,219.563 63.871 C 219.435 63.950,219.257 64.351,219.167 64.763 C 219.077 65.175,218.809 65.759,218.572 66.062 C 218.334 66.365,218.139 66.885,218.139 67.218 C 218.138 67.550,217.930 68.163,217.677 68.579 C 217.423 68.995,217.215 69.671,217.214 70.081 C 217.213 70.491,217.005 71.691,216.752 72.747 C 216.180 75.134,216.100 80.510,216.616 81.971 C 216.794 82.477,217.013 83.608,217.102 84.484 C 217.191 85.361,217.454 86.493,217.687 87.002 C 217.920 87.510,218.172 88.306,218.247 88.769 C 218.322 89.233,218.534 89.738,218.718 89.890 C 218.901 90.043,219.118 90.523,219.200 90.957 C 219.281 91.390,219.466 91.822,219.610 91.915 C 219.755 92.009,220.056 92.449,220.280 92.894 C 220.666 93.661,220.871 93.990,221.944 95.575 C 223.045 97.199,225.171 99.618,226.954 101.275 C 228.016 102.262,229.050 103.223,229.251 103.412 C 229.452 103.601,229.719 103.755,229.843 103.755 C 229.967 103.755,230.275 103.947,230.527 104.182 C 230.976 104.601,231.784 105.085,232.929 105.621 C 233.247 105.769,234.028 106.138,234.665 106.441 C 235.303 106.743,235.981 106.990,236.174 106.990 C 236.366 106.990,236.745 107.145,237.015 107.335 C 237.285 107.524,238.224 107.781,239.100 107.905 C 239.977 108.029,241.075 108.290,241.541 108.485 C 242.748 108.989,251.107 108.978,252.455 108.470 C 252.964 108.279,254.098 108.024,254.977 107.904 C 255.856 107.785,256.740 107.541,256.941 107.364 C 257.143 107.186,257.744 106.969,258.277 106.882 C 258.810 106.794,259.357 106.588,259.494 106.423 C 259.631 106.258,260.209 105.993,260.779 105.834 C 261.348 105.674,261.814 105.466,261.814 105.371 C 261.814 105.275,262.152 105.059,262.565 104.890 C 262.978 104.720,263.732 104.290,264.240 103.933 C 264.749 103.576,265.685 102.929,266.320 102.495 C 268.013 101.339,271.022 98.312,272.191 96.590 C 272.750 95.765,273.280 95.038,273.368 94.974 C 273.456 94.910,273.674 94.579,273.852 94.238 C 274.031 93.897,274.567 92.945,275.043 92.121 C 275.520 91.298,275.910 90.472,275.910 90.285 C 275.910 90.099,276.059 89.823,276.241 89.672 C 276.422 89.521,276.682 88.882,276.817 88.251 C 276.953 87.620,277.210 86.873,277.389 86.591 C 277.568 86.308,277.789 85.402,277.880 84.575 C 277.970 83.749,278.180 82.709,278.345 82.265 C 278.742 81.198,278.992 78.643,278.717 78.473 C 278.598 78.400,271.497 78.282,262.936 78.211 C 248.874 78.094,247.344 78.045,247.083 77.703 C 246.858 77.409,246.794 74.004,246.794 62.507 C 246.794 44.759,247.285 46.519,242.476 47.040 M163.115 59.314 C 161.093 59.496,161.266 55.073,161.342 104.795 L 161.410 148.700 169.497 148.700 L 177.585 148.700 177.652 105.488 C 177.721 60.687,177.721 60.674,177.015 59.802 C 176.592 59.278,167.182 58.948,163.115 59.314 M118.359 77.227 C 117.993 77.593,117.953 147.292,118.319 148.254 L 118.556 148.877 125.771 148.712 C 131.437 148.582,133.098 148.475,133.507 148.213 L 134.027 147.881 134.027 112.693 C 134.027 85.632,133.963 77.440,133.749 77.227 C 133.353 76.830,118.756 76.830,118.359 77.227 M185.095 86.166 L 184.287 86.308 184.287 117.196 C 184.287 134.185,184.373 148.171,184.479 148.277 C 184.970 148.769,199.140 148.636,199.641 148.135 C 200.219 147.557,200.412 86.813,199.838 86.239 C 199.543 85.944,186.713 85.880,185.095 86.166 M216.176 117.327 C 215.430 117.513,215.374 117.795,215.370 121.375 C 215.365 126.341,210.532 125.708,248.417 125.708 L 280.543 125.708 280.768 125.115 C 281.104 124.233,281.060 117.779,280.716 117.435 C 280.438 117.157,217.279 117.051,216.176 117.327 M215.771 129.333 C 215.187 129.486,215.150 136.667,215.732 136.890 C 215.933 136.967,227.474 137.031,241.378 137.031 L 266.658 137.031 266.786 136.511 C 266.857 136.225,266.885 134.483,266.849 132.640 L 266.782 129.289 241.479 129.258 C 227.562 129.241,215.994 129.274,215.771 129.333 M221.969 142.092 L 215.515 142.230 215.319 142.923 C 214.965 144.172,215.364 149.044,215.861 149.541 C 216.399 150.079,257.305 150.229,257.839 149.694 C 258.287 149.246,258.221 142.720,257.765 142.342 C 257.367 142.011,233.581 141.845,221.969 142.092 M174.138 174.213 C 173.732 174.663,173.695 175.293,173.589 183.717 C 173.465 193.617,173.509 193.342,172.085 193.140 C 171.762 193.094,171.491 193.234,171.341 193.526 C 171.211 193.778,170.797 194.090,170.420 194.219 C 170.044 194.348,169.552 194.636,169.328 194.858 C 169.103 195.081,168.728 195.263,168.493 195.263 C 168.259 195.263,167.879 195.471,167.649 195.725 C 167.419 195.979,167.043 196.187,166.813 196.187 C 166.584 196.187,166.194 196.404,165.947 196.669 C 165.583 197.060,165.409 197.104,165.029 196.900 C 164.306 196.514,164.067 196.597,164.067 197.234 C 164.067 197.925,163.491 198.220,162.884 197.841 C 162.290 197.470,162.218 197.499,162.218 198.105 C 162.218 199.117,161.091 199.597,160.619 198.787 C 160.417 198.439,160.383 198.469,160.377 199.001 C 160.370 199.606,159.950 200.217,159.420 200.394 C 159.010 200.530,158.861 202.784,159.246 203.032 C 159.425 203.147,175.065 203.205,195.494 203.166 C 215.257 203.128,231.869 203.102,232.409 203.108 L 233.391 203.120 233.391 201.733 L 233.391 200.347 232.609 200.347 C 232.042 200.347,231.728 200.197,231.469 199.801 C 231.272 199.501,230.793 199.191,230.403 199.113 C 229.795 198.992,229.694 198.870,229.694 198.256 C 229.694 197.606,229.661 197.574,229.331 197.904 C 228.692 198.543,227.614 197.996,227.614 197.034 C 227.614 196.703,227.545 196.688,227.151 196.935 C 226.561 197.303,225.884 196.924,225.874 196.220 C 225.867 195.667,225.811 195.633,225.259 195.845 C 224.547 196.118,224.036 195.866,223.959 195.203 C 223.879 194.510,223.675 194.435,222.938 194.830 C 222.556 195.034,222.398 195.018,222.202 194.755 C 222.065 194.570,221.612 194.302,221.195 194.158 C 220.778 194.014,220.277 193.735,220.081 193.539 C 219.885 193.343,219.543 193.183,219.322 193.183 C 217.957 193.183,217.941 193.075,217.917 183.314 C 217.902 177.577,217.809 174.274,217.659 174.123 C 217.504 173.968,210.126 173.861,195.999 173.810 L 174.574 173.732 174.138 174.213 M217.562 183.131 L 217.562 191.912 195.956 191.912 L 174.350 191.912 174.289 183.363 C 174.256 178.661,174.279 174.683,174.340 174.523 C 174.429 174.292,178.850 174.244,196.007 174.291 L 217.562 174.350 217.562 183.131 M231.789 201.048 C 232.343 201.344,232.400 202.545,231.870 202.748 C 231.181 203.013,159.485 202.908,159.321 202.642 C 159.237 202.507,159.236 202.039,159.317 201.603 L 159.466 200.809 195.404 200.809 C 219.735 200.809,231.486 200.886,231.789 201.048 " stroke="none" fill="#2fade3" fill-rule="evenodd"></path><path id="path1" d="M250.023 43.574 C 249.672 44.498,249.722 74.470,250.075 74.824 C 250.451 75.199,280.328 75.226,281.028 74.852 C 281.562 74.566,281.460 70.174,280.864 67.829 C 280.245 65.394,279.825 64.037,279.492 63.399 C 279.303 63.036,279.147 62.659,279.146 62.561 C 279.143 62.111,276.600 57.917,275.260 56.153 C 270.729 50.183,262.766 44.908,256.730 43.876 C 256.031 43.757,254.710 43.507,253.794 43.320 C 251.209 42.794,250.296 42.855,250.023 43.574 M140.668 95.222 C 140.190 95.300,139.722 95.441,139.628 95.535 C 139.050 96.111,138.976 147.443,139.552 148.155 L 139.993 148.700 147.845 148.767 L 155.697 148.833 155.954 148.097 C 156.390 146.845,156.310 95.576,155.871 95.212 C 155.515 94.916,142.482 94.925,140.668 95.222 " stroke="none" fill="#eccc2d" fill-rule="evenodd"></path><path id="path2" d="M102.096 24.090 C 102.034 24.526,101.891 24.604,101.213 24.570 C 100.448 24.532,100.429 24.549,100.867 24.873 C 101.155 25.086,101.546 25.158,101.906 25.064 C 102.224 24.981,105.032 24.834,108.146 24.737 C 111.259 24.639,113.827 24.545,113.850 24.527 C 113.874 24.509,113.878 24.287,113.859 24.032 C 113.825 23.583,113.659 23.570,107.997 23.570 L 102.170 23.570 102.096 24.090 M280.002 23.975 C 280.268 24.695,280.541 24.718,288.871 24.722 C 293.585 24.724,297.911 24.835,299.005 24.983 C 300.566 25.193,300.971 25.182,301.229 24.925 C 301.495 24.659,301.410 24.610,300.685 24.610 C 299.971 24.610,299.814 24.523,299.753 24.090 L 299.679 23.570 289.766 23.570 C 280.422 23.570,279.861 23.593,280.002 23.975 M99.092 25.014 C 99.030 25.449,98.865 25.539,98.094 25.564 C 96.635 25.611,96.592 25.626,96.592 26.087 C 96.592 26.687,97.219 26.878,97.817 26.459 C 98.089 26.268,98.528 26.112,98.792 26.112 C 99.421 26.112,99.827 25.686,99.827 25.026 C 99.827 24.335,99.190 24.325,99.092 25.014 M301.791 25.064 C 301.791 25.751,302.440 26.169,303.010 25.850 C 303.792 25.413,303.514 24.495,302.600 24.495 C 301.894 24.495,301.791 24.567,301.791 25.064 M303.871 26.118 C 303.871 26.629,304.010 26.870,304.391 27.016 C 304.925 27.222,306.875 29.074,306.875 29.376 C 306.875 29.469,307.057 29.727,307.279 29.949 C 307.501 30.171,307.787 30.672,307.915 31.063 C 308.087 31.595,308.305 31.792,308.781 31.847 C 309.569 31.937,309.681 31.266,308.897 31.154 C 308.542 31.104,308.353 30.897,308.303 30.503 C 308.262 30.185,308.087 29.815,307.915 29.680 C 307.742 29.546,307.568 29.026,307.527 28.525 C 307.466 27.784,307.355 27.600,306.932 27.540 C 306.598 27.493,306.412 27.307,306.412 27.020 C 306.412 26.646,306.246 26.574,305.373 26.574 C 304.417 26.574,304.333 26.527,304.333 25.997 C 304.333 25.679,304.229 25.419,304.102 25.419 C 303.975 25.419,303.871 25.733,303.871 26.118 M95.667 27.152 C 95.667 27.584,95.545 27.730,95.183 27.730 C 94.894 27.730,94.651 27.915,94.579 28.192 C 94.512 28.446,94.316 28.654,94.143 28.654 C 93.969 28.654,93.762 28.914,93.682 29.232 C 93.578 29.646,93.382 29.809,92.985 29.809 C 92.681 29.809,92.432 29.913,92.432 30.040 C 92.432 30.505,93.794 30.288,94.065 29.781 C 94.210 29.510,94.733 28.917,95.229 28.461 C 96.071 27.687,96.466 26.574,95.898 26.574 C 95.771 26.574,95.667 26.834,95.667 27.152 M91.672 30.647 C 91.199 31.120,91.513 31.919,92.143 31.847 C 92.648 31.789,92.779 31.654,92.779 31.196 C 92.779 30.623,92.054 30.264,91.672 30.647 M90.583 33.391 C 90.583 34.095,90.657 34.200,91.148 34.200 C 91.841 34.200,92.057 33.886,91.872 33.147 C 91.626 32.166,90.583 32.364,90.583 33.391 M309.128 32.714 C 308.500 33.352,309.169 35.139,310.010 35.070 C 310.760 35.008,310.710 34.120,309.950 34.012 C 309.576 33.959,309.425 33.757,309.372 33.239 C 309.333 32.854,309.223 32.617,309.128 32.714 M103.945 33.901 C 103.605 33.953,103.202 34.146,103.050 34.329 C 102.898 34.512,102.650 34.662,102.499 34.662 C 102.012 34.662,101.030 35.897,100.479 37.204 L 99.942 38.475 99.878 92.772 C 99.798 159.550,99.736 157.730,102.137 159.475 L 103.177 160.230 106.528 160.317 C 108.371 160.365,128.648 160.481,151.589 160.575 C 174.529 160.669,193.488 160.831,193.720 160.936 C 194.053 161.086,194.102 161.253,193.953 161.730 C 193.114 164.412,193.951 166.171,196.142 166.330 C 198.671 166.513,200.399 163.593,198.699 162.009 C 197.305 160.710,199.877 160.618,238.937 160.574 C 252.218 160.559,270.786 160.481,280.199 160.401 L 297.312 160.254 298.106 159.586 C 298.543 159.218,299.202 158.389,299.571 157.743 L 300.242 156.568 300.336 110.578 C 300.387 85.283,300.345 58.063,300.243 50.090 L 300.058 35.594 299.187 34.723 L 298.317 33.853 201.440 33.830 C 148.158 33.817,104.285 33.849,103.945 33.901 M298.079 34.501 C 300.064 35.456,300.018 33.685,299.888 103.062 L 299.789 156.326 299.191 157.482 C 298.862 158.118,298.246 158.898,297.823 159.215 L 297.054 159.792 285.384 159.936 C 269.301 160.135,137.917 160.173,118.916 159.985 L 103.460 159.831 102.510 159.108 C 100.405 157.505,100.525 160.749,100.380 101.906 C 100.216 35.362,100.163 36.744,102.946 34.921 L 103.871 34.315 140.497 34.200 C 203.331 34.002,297.415 34.181,298.079 34.501 M90.663 36.049 C 91.006 37.443,90.531 46.256,90.118 46.148 C 89.772 46.058,89.709 46.370,89.577 48.825 C 89.306 53.866,89.560 157.691,89.841 156.371 C 90.049 155.388,90.475 156.234,90.583 157.846 C 90.647 158.789,90.776 159.443,90.869 159.300 C 91.175 158.830,91.096 36.004,90.790 35.720 C 90.588 35.533,90.556 35.616,90.663 36.049 M242.057 46.569 C 241.548 46.737,240.820 46.884,240.439 46.896 C 237.484 46.989,229.708 50.941,226.394 54.034 C 224.960 55.373,223.186 57.250,222.783 57.855 C 222.581 58.160,221.913 59.157,221.299 60.070 C 220.054 61.921,218.037 65.831,217.775 66.898 C 217.681 67.279,217.470 67.799,217.306 68.053 C 217.142 68.307,216.940 68.983,216.857 69.555 C 216.773 70.127,216.553 71.115,216.366 71.750 C 215.752 73.843,215.680 80.141,216.240 82.851 C 216.501 84.117,216.776 85.523,216.852 85.975 C 216.927 86.427,217.196 87.203,217.449 87.699 C 217.702 88.195,217.909 88.825,217.909 89.099 C 217.909 89.373,218.117 89.861,218.371 90.184 C 218.625 90.508,218.833 90.887,218.833 91.029 C 218.833 91.363,220.139 93.809,220.575 94.291 C 220.761 94.496,220.913 94.738,220.913 94.828 C 220.913 95.429,224.677 99.889,226.692 101.675 C 227.624 102.501,228.558 103.333,228.767 103.524 C 229.938 104.590,233.682 106.690,235.355 107.220 C 235.864 107.381,236.392 107.601,236.529 107.709 C 236.666 107.817,237.445 108.058,238.262 108.245 C 239.078 108.432,240.422 108.758,241.248 108.970 C 243.171 109.462,251.849 109.306,253.517 108.749 C 254.077 108.562,255.055 108.304,255.690 108.175 C 257.718 107.766,262.032 106.039,262.238 105.554 C 262.280 105.454,262.444 105.373,262.601 105.373 C 263.865 105.373,271.417 98.949,272.789 96.707 C 273.022 96.326,273.640 95.338,274.162 94.512 C 274.684 93.686,275.240 92.802,275.398 92.548 C 277.270 89.534,279.234 82.615,279.097 79.517 L 279.029 77.990 263.365 77.874 C 250.550 77.780,247.666 77.702,247.508 77.446 C 247.402 77.274,247.239 70.359,247.145 62.079 C 247.050 53.659,246.880 46.847,246.760 46.620 C 246.495 46.119,243.520 46.087,242.057 46.569 M246.505 47.323 C 246.729 47.609,246.794 51.004,246.794 62.507 C 246.794 74.004,246.858 77.409,247.083 77.703 C 247.344 78.045,248.874 78.094,262.936 78.211 C 271.497 78.282,278.598 78.400,278.717 78.473 C 278.992 78.643,278.742 81.198,278.345 82.265 C 278.180 82.709,277.970 83.749,277.880 84.575 C 277.789 85.402,277.568 86.308,277.389 86.591 C 277.210 86.873,276.953 87.620,276.817 88.251 C 276.682 88.882,276.422 89.521,276.241 89.672 C 276.059 89.823,275.910 90.099,275.910 90.285 C 275.910 90.472,275.520 91.298,275.043 92.121 C 274.567 92.945,274.031 93.897,273.852 94.238 C 273.674 94.579,273.456 94.910,273.368 94.974 C 273.280 95.038,272.750 95.765,272.191 96.590 C 271.022 98.312,268.013 101.339,266.320 102.495 C 265.685 102.929,264.749 103.576,264.240 103.933 C 263.732 104.290,262.978 104.720,262.565 104.890 C 262.152 105.059,261.814 105.275,261.814 105.371 C 261.814 105.466,261.348 105.674,260.779 105.834 C 260.209 105.993,259.631 106.258,259.494 106.423 C 259.357 106.588,258.810 106.794,258.277 106.882 C 257.744 106.969,257.143 107.186,256.941 107.364 C 256.740 107.541,255.856 107.785,254.977 107.904 C 254.098 108.024,252.964 108.279,252.455 108.470 C 251.107 108.978,242.748 108.989,241.541 108.485 C 241.075 108.290,239.977 108.029,239.100 107.905 C 238.224 107.781,237.285 107.524,237.015 107.335 C 236.745 107.145,236.366 106.990,236.174 106.990 C 235.981 106.990,235.303 106.743,234.665 106.441 C 234.028 106.138,233.247 105.769,232.929 105.621 C 231.784 105.085,230.976 104.601,230.527 104.182 C 230.275 103.947,229.967 103.755,229.843 103.755 C 229.719 103.755,229.452 103.601,229.251 103.412 C 229.050 103.223,228.016 102.262,226.954 101.275 C 225.171 99.618,223.045 97.199,221.944 95.575 C 220.871 93.990,220.666 93.661,220.280 92.894 C 220.056 92.449,219.755 92.009,219.610 91.915 C 219.466 91.822,219.281 91.390,219.200 90.957 C 219.118 90.523,218.901 90.043,218.718 89.890 C 218.534 89.738,218.322 89.233,218.247 88.769 C 218.172 88.306,217.920 87.510,217.687 87.002 C 217.454 86.493,217.191 85.361,217.102 84.484 C 217.013 83.608,216.794 82.477,216.616 81.971 C 216.100 80.510,216.180 75.134,216.752 72.747 C 217.005 71.691,217.213 70.491,217.214 70.081 C 217.215 69.671,217.423 68.995,217.677 68.579 C 217.930 68.163,218.138 67.550,218.139 67.218 C 218.139 66.885,218.334 66.365,218.572 66.062 C 218.809 65.759,219.077 65.175,219.167 64.763 C 219.257 64.351,219.435 63.950,219.563 63.871 C 219.691 63.792,219.998 63.297,220.244 62.771 C 220.916 61.339,221.456 60.449,221.779 60.243 C 221.938 60.141,222.068 59.947,222.068 59.811 C 222.068 59.675,222.354 59.224,222.704 58.808 C 223.053 58.392,223.547 57.779,223.801 57.447 C 224.427 56.629,226.730 54.286,227.411 53.776 C 227.713 53.549,228.377 53.058,228.885 52.684 C 229.393 52.310,229.966 51.854,230.158 51.670 C 230.350 51.487,230.793 51.265,231.143 51.177 C 231.493 51.089,231.856 50.891,231.950 50.737 C 232.131 50.438,234.995 48.989,235.403 48.989 C 235.536 48.989,235.765 48.844,235.912 48.668 C 236.059 48.491,236.668 48.273,237.266 48.183 C 237.864 48.093,238.647 47.868,239.006 47.682 C 240.547 46.886,245.957 46.627,246.505 47.323 M161.617 59.151 C 161.241 59.303,161.099 59.624,160.984 60.581 C 160.608 63.715,160.818 148.538,161.203 148.923 C 161.743 149.463,177.589 149.361,177.943 148.816 C 178.087 148.593,178.146 132.562,178.107 104.139 L 178.047 59.809 177.502 59.367 C 176.911 58.889,162.743 58.696,161.617 59.151 M177.015 59.802 C 177.721 60.674,177.721 60.687,177.652 105.488 L 177.585 148.700 169.497 148.700 L 161.410 148.700 161.342 104.795 C 161.266 55.073,161.093 59.496,163.115 59.314 C 167.182 58.948,176.592 59.278,177.015 59.802 M118.544 76.555 L 117.966 76.847 117.826 90.590 C 117.631 109.638,117.621 146.632,117.810 147.891 L 117.966 148.931 125.878 148.992 C 133.634 149.052,133.799 149.043,134.272 148.570 L 134.755 148.087 134.680 112.614 L 134.604 77.140 134.059 76.698 C 133.371 76.142,119.613 76.015,118.544 76.555 M133.749 77.227 C 133.963 77.440,134.027 85.632,134.027 112.693 L 134.027 147.881 133.507 148.213 C 133.098 148.475,131.437 148.582,125.771 148.712 L 118.556 148.877 118.319 148.254 C 117.953 147.292,117.993 77.593,118.359 77.227 C 118.756 76.830,133.353 76.830,133.749 77.227 M185.865 85.462 C 184.954 85.546,184.122 85.702,184.016 85.807 C 183.298 86.527,183.460 147.433,184.183 148.604 C 184.349 148.873,185.710 148.943,191.833 148.998 C 200.086 149.073,200.478 149.020,200.698 147.808 C 201.053 145.859,200.698 86.214,200.330 85.846 C 199.925 85.441,189.168 85.155,185.865 85.462 M199.838 86.239 C 200.412 86.813,200.219 147.557,199.641 148.135 C 199.140 148.636,184.970 148.769,184.479 148.277 C 184.373 148.171,184.287 134.185,184.287 117.196 L 184.287 86.308 185.095 86.166 C 186.713 85.880,199.543 85.944,199.838 86.239 M222.665 116.854 C 217.693 116.909,215.423 117.015,215.199 117.201 C 214.754 117.570,214.864 125.299,215.321 125.754 C 215.724 126.157,279.833 126.324,280.797 125.924 C 281.801 125.509,282.026 117.919,281.058 117.116 C 280.717 116.832,240.796 116.654,222.665 116.854 M280.716 117.435 C 281.060 117.779,281.104 124.233,280.768 125.115 L 280.543 125.708 248.417 125.708 C 210.532 125.708,215.365 126.341,215.370 121.375 C 215.374 117.795,215.430 117.513,216.176 117.327 C 217.279 117.051,280.438 117.157,280.716 117.435 M219.387 128.712 C 216.643 128.797,215.563 128.914,215.271 129.157 C 214.760 129.582,214.804 137.024,215.321 137.540 C 215.660 137.879,260.701 138.095,264.818 137.778 L 267.013 137.608 267.076 133.424 C 267.124 130.208,267.069 129.181,266.838 128.989 C 266.518 128.723,226.541 128.490,219.387 128.712 M266.849 132.640 C 266.885 134.483,266.857 136.225,266.786 136.511 L 266.658 137.031 241.378 137.031 C 227.474 137.031,215.933 136.967,215.732 136.890 C 215.150 136.667,215.187 129.486,215.771 129.333 C 215.994 129.274,227.562 129.241,241.479 129.258 L 266.782 129.289 266.849 132.640 M222.017 141.346 C 215.606 141.425,215.371 141.444,215.126 141.902 C 214.676 142.743,214.931 149.405,215.433 149.906 C 216.006 150.478,257.465 150.676,258.239 150.110 C 258.827 149.680,258.848 142.285,258.264 141.700 C 257.921 141.358,237.308 141.156,222.017 141.346 M257.765 142.342 C 258.221 142.720,258.287 149.246,257.839 149.694 C 257.305 150.229,216.399 150.079,215.861 149.541 C 215.364 149.044,214.965 144.172,215.319 142.923 L 215.515 142.230 221.969 142.092 C 233.581 141.845,257.367 142.011,257.765 142.342 M310.387 153.322 C 310.355 153.741,310.264 153.906,310.158 153.738 C 309.671 152.973,308.599 158.349,308.913 159.979 C 309.013 160.497,309.457 160.484,309.404 159.965 C 309.311 159.050,309.429 158.752,309.886 158.752 C 310.548 158.752,310.596 158.490,310.514 155.388 C 310.473 153.870,310.416 152.940,310.387 153.322 M90.583 160.716 C 90.583 161.419,90.657 161.525,91.146 161.525 C 91.806 161.525,92.156 160.756,91.730 160.243 C 91.183 159.585,90.583 159.832,90.583 160.716 M308.319 160.985 C 307.975 161.124,307.932 162.130,308.261 162.334 C 308.388 162.412,308.492 162.263,308.492 162.001 C 308.492 161.679,308.642 161.525,308.954 161.525 C 309.211 161.525,309.417 161.371,309.417 161.179 C 309.417 160.841,308.901 160.750,308.319 160.985 M197.955 161.860 C 199.573 163.527,198.663 165.916,196.410 165.916 C 194.662 165.916,193.636 164.555,194.118 162.875 C 194.680 160.916,196.556 160.420,197.955 161.860 M91.508 162.912 C 91.508 163.758,92.524 163.944,92.778 163.145 C 92.976 162.520,92.746 162.218,92.072 162.218 C 91.599 162.218,91.508 162.331,91.508 162.912 M307.152 163.189 C 306.999 163.341,306.875 163.589,306.875 163.738 C 306.875 163.888,306.719 164.140,306.528 164.298 C 305.912 164.809,306.090 165.495,306.817 165.411 C 307.411 165.343,307.448 165.273,307.390 164.356 C 307.333 163.444,307.370 163.374,307.910 163.374 C 308.230 163.374,308.492 163.270,308.492 163.143 C 308.492 162.819,307.487 162.854,307.152 163.189 M92.489 164.125 C 92.541 164.284,92.810 164.447,93.086 164.487 C 93.505 164.549,93.588 164.714,93.588 165.491 C 93.588 166.227,93.684 166.446,94.050 166.542 C 94.317 166.612,94.512 166.857,94.512 167.124 C 94.512 167.540,94.614 167.570,95.552 167.430 C 96.554 167.279,96.592 167.295,96.592 167.866 C 96.592 168.238,96.720 168.458,96.938 168.458 C 97.602 168.458,97.345 167.345,96.592 166.956 C 96.210 166.758,95.898 166.503,95.898 166.387 C 95.898 166.272,95.716 166.116,95.494 166.041 C 95.272 165.966,94.739 165.439,94.312 164.870 C 93.568 163.882,92.228 163.334,92.489 164.125 M304.256 166.707 C 304.187 166.887,303.890 167.069,303.596 167.111 C 302.580 167.255,302.715 168.488,303.739 168.419 C 304.335 168.378,304.564 168.256,304.564 167.975 C 304.564 167.762,304.772 167.533,305.026 167.466 C 305.720 167.285,305.644 166.378,304.935 166.378 C 304.631 166.378,304.325 166.526,304.256 166.707 M97.747 168.226 C 97.467 168.408,97.500 168.451,97.920 168.454 C 98.320 168.457,98.440 168.591,98.440 169.035 C 98.440 169.450,98.565 169.613,98.882 169.613 C 99.208 169.613,99.308 169.471,99.264 169.071 C 99.150 168.029,98.560 167.701,97.747 168.226 M301.144 168.273 C 300.524 168.893,300.809 169.613,301.675 169.613 C 302.619 169.613,302.865 168.678,302.037 168.235 C 301.480 167.936,301.480 167.936,301.144 168.273 M99.720 169.137 C 99.646 169.257,100.029 169.387,100.572 169.426 C 101.394 169.485,101.572 169.585,101.634 170.017 C 101.746 170.807,103.293 170.787,103.293 169.996 C 103.293 169.190,100.153 168.436,99.720 169.137 M297.863 169.222 C 296.604 169.651,296.583 170.537,297.830 170.537 C 298.613 170.537,298.766 170.458,298.829 170.017 C 298.885 169.620,299.093 169.469,299.711 169.379 C 300.342 169.286,300.427 169.223,300.097 169.090 C 299.513 168.855,298.816 168.896,297.863 169.222 M173.541 173.079 C 173.541 173.390,173.387 173.541,173.072 173.541 C 172.606 173.541,172.603 173.624,172.667 183.149 L 172.733 192.756 171.767 192.611 C 170.840 192.472,170.798 192.493,170.727 193.114 C 170.659 193.708,170.583 193.755,169.804 193.687 C 169.067 193.623,168.946 193.683,168.880 194.149 C 168.814 194.612,168.686 194.678,167.938 194.634 C 167.164 194.589,167.071 194.643,167.071 195.135 C 167.071 195.808,166.728 195.947,165.739 195.677 C 164.862 195.437,164.529 195.578,164.529 196.193 C 164.529 196.943,165.414 197.241,165.947 196.669 C 166.194 196.404,166.584 196.187,166.813 196.187 C 167.043 196.187,167.419 195.979,167.649 195.725 C 167.879 195.471,168.259 195.263,168.493 195.263 C 168.728 195.263,169.103 195.081,169.328 194.858 C 169.552 194.636,170.044 194.348,170.420 194.219 C 170.797 194.090,171.211 193.778,171.341 193.526 C 171.491 193.234,171.762 193.094,172.085 193.140 C 173.509 193.342,173.465 193.617,173.589 183.717 C 173.695 175.293,173.732 174.663,174.138 174.213 L 174.574 173.732 195.999 173.810 C 210.126 173.861,217.504 173.968,217.659 174.123 C 217.809 174.274,217.902 177.577,217.917 183.314 C 217.941 193.075,217.957 193.183,219.322 193.183 C 219.543 193.183,219.885 193.343,220.081 193.539 C 220.277 193.735,220.778 194.014,221.195 194.158 C 221.612 194.302,222.065 194.570,222.202 194.755 C 222.549 195.221,223.455 194.724,223.455 194.068 C 223.455 193.629,223.359 193.596,222.467 193.718 C 221.268 193.882,220.799 193.642,220.979 192.955 C 221.097 192.503,221.045 192.465,220.497 192.602 C 219.791 192.779,219.744 192.785,219.353 192.748 C 219.013 192.716,218.956 191.566,219.295 191.566 C 219.422 191.566,219.525 191.384,219.523 191.161 C 219.520 190.829,219.482 190.816,219.309 191.089 C 219.133 191.366,219.039 191.370,218.728 191.112 C 218.398 190.838,218.358 189.818,218.371 181.999 C 218.380 177.157,218.383 173.065,218.379 172.906 C 218.363 172.329,173.541 172.502,173.541 173.079 M223.959 195.205 C 224.021 195.741,224.141 195.841,224.726 195.841 C 225.310 195.841,225.430 195.741,225.492 195.205 C 225.560 194.615,225.505 194.570,224.726 194.570 C 223.946 194.570,223.891 194.615,223.959 195.205 M225.858 196.113 C 225.905 197.345,227.383 197.460,227.383 196.232 C 227.383 195.640,227.300 195.566,226.609 195.540 C 225.916 195.514,225.837 195.574,225.858 196.113 M162.532 196.999 C 162.343 197.490,162.894 198.071,163.469 197.989 C 164.348 197.864,164.269 196.649,163.382 196.649 C 162.956 196.649,162.612 196.791,162.532 196.999 M227.614 197.076 C 227.614 197.708,228.413 198.338,228.984 198.157 C 229.648 197.946,229.584 197.574,228.885 197.574 C 228.461 197.574,228.307 197.450,228.307 197.111 C 228.307 196.855,228.153 196.649,227.961 196.649 C 227.770 196.649,227.614 196.841,227.614 197.076 M161.715 198.084 C 161.669 198.401,161.421 198.652,161.063 198.746 C 160.539 198.882,160.526 198.914,160.921 199.081 C 161.517 199.332,162.088 198.926,162.176 198.186 C 162.264 197.451,161.820 197.353,161.715 198.084 M229.694 198.273 C 229.694 198.868,229.799 198.993,230.403 199.113 C 230.793 199.191,231.272 199.501,231.469 199.801 C 231.728 200.197,232.042 200.347,232.609 200.347 C 233.544 200.347,233.661 199.946,232.756 199.842 C 232.259 199.785,232.104 199.632,232.048 199.142 C 231.983 198.576,231.893 198.520,231.124 198.564 C 230.375 198.608,230.274 198.550,230.290 198.094 C 230.300 197.806,230.171 197.574,230.001 197.574 C 229.813 197.574,229.694 197.845,229.694 198.273 M159.676 199.060 C 159.676 199.466,159.533 199.642,159.157 199.695 C 158.762 199.751,158.620 199.945,158.566 200.496 C 158.518 200.986,158.349 201.262,158.046 201.341 C 157.462 201.494,157.428 202.610,158.001 202.821 C 158.531 203.017,158.744 203.349,158.749 203.986 L 158.752 204.506 196.072 204.506 L 233.391 204.506 233.391 203.789 L 233.391 203.073 196.476 203.154 C 175.459 203.200,159.425 203.148,159.246 203.032 C 158.861 202.784,159.010 200.530,159.420 200.394 C 160.269 200.111,160.782 198.498,160.023 198.498 C 159.810 198.498,159.676 198.714,159.676 199.060 " stroke="none" fill="#8fd0eb" fill-rule="evenodd"></path><path id="path3" d="M174.340 174.523 C 174.279 174.683,174.256 178.661,174.289 183.363 L 174.350 191.912 195.956 191.912 L 217.562 191.912 217.562 183.131 L 217.562 174.350 196.007 174.291 C 178.850 174.244,174.429 174.292,174.340 174.523 M159.317 201.603 C 159.236 202.039,159.237 202.507,159.321 202.642 C 159.485 202.908,231.181 203.013,231.870 202.748 C 232.400 202.545,232.343 201.344,231.789 201.048 C 231.486 200.886,219.735 200.809,195.404 200.809 L 159.466 200.809 159.317 201.603 " stroke="none" fill="#2494c4" fill-rule="evenodd"></path><path id="path4" d="M104.831 34.768 C 104.597 34.946,104.021 35.156,103.551 35.235 C 102.940 35.338,102.501 35.624,102.012 36.234 L 101.329 37.088 101.183 44.136 C 100.991 53.383,100.990 138.199,101.181 148.976 C 101.325 157.139,101.341 157.351,101.825 157.802 C 102.098 158.056,102.358 158.348,102.403 158.450 C 102.448 158.553,102.981 158.871,103.588 159.157 L 104.692 159.676 200.093 159.676 L 295.494 159.676 296.745 159.123 C 299.521 157.896,299.309 160.473,299.476 125.939 C 299.717 76.055,299.567 39.290,299.112 37.178 L 298.734 35.418 297.543 34.925 L 296.352 34.431 200.804 34.438 C 119.406 34.445,105.194 34.493,104.831 34.768 M253.794 43.320 C 254.710 43.507,256.031 43.757,256.730 43.876 C 262.766 44.908,270.729 50.183,275.260 56.153 C 276.600 57.917,279.143 62.111,279.146 62.561 C 279.147 62.659,279.303 63.036,279.492 63.399 C 279.825 64.037,280.245 65.394,280.864 67.829 C 281.460 70.174,281.562 74.566,281.028 74.852 C 280.328 75.226,250.451 75.199,250.075 74.824 C 249.722 74.470,249.672 44.498,250.023 43.574 C 250.296 42.855,251.209 42.794,253.794 43.320 M247.075 46.162 C 247.292 46.423,247.371 47.639,247.371 50.700 C 247.371 53.000,247.397 59.782,247.429 65.772 L 247.487 76.663 248.122 76.916 C 248.549 77.086,253.772 77.213,264.007 77.300 C 272.543 77.373,279.348 77.522,279.464 77.638 C 279.854 78.029,279.345 83.945,278.821 85.114 C 278.640 85.517,278.422 86.262,278.335 86.771 C 278.249 87.279,278.035 87.955,277.860 88.273 C 277.684 88.590,277.433 89.280,277.301 89.806 C 277.170 90.331,276.907 90.890,276.717 91.047 C 276.527 91.204,276.372 91.515,276.372 91.736 C 276.372 91.957,276.164 92.403,275.910 92.726 C 275.656 93.049,275.448 93.422,275.448 93.554 C 275.448 93.687,275.214 94.056,274.928 94.375 C 274.642 94.694,274.057 95.531,273.627 96.235 C 273.198 96.940,272.756 97.516,272.645 97.516 C 272.534 97.516,272.444 97.658,272.444 97.832 C 272.444 98.228,267.540 102.990,266.771 103.340 C 266.459 103.482,266.205 103.684,266.205 103.789 C 266.205 103.894,265.867 104.121,265.453 104.294 C 265.040 104.467,264.560 104.780,264.385 104.990 C 264.211 105.201,263.889 105.373,263.670 105.373 C 263.451 105.373,263.089 105.575,262.866 105.822 C 262.642 106.069,262.158 106.337,261.790 106.418 C 261.422 106.499,261.121 106.644,261.121 106.740 C 261.121 106.976,260.049 107.452,259.521 107.452 C 259.288 107.452,258.970 107.606,258.815 107.793 C 258.660 107.980,258.153 108.196,257.689 108.273 C 257.225 108.350,256.164 108.615,255.330 108.862 C 254.497 109.110,252.795 109.369,251.548 109.438 C 250.301 109.508,249.026 109.661,248.716 109.779 C 247.377 110.288,239.465 109.564,238.610 108.855 C 238.447 108.720,237.759 108.504,237.082 108.375 C 236.404 108.247,235.686 107.999,235.487 107.824 C 235.287 107.650,234.864 107.435,234.547 107.348 C 233.965 107.187,231.591 106.060,230.736 105.538 C 230.292 105.267,229.925 104.999,228.300 103.755 C 226.082 102.057,221.606 97.283,221.606 96.615 C 221.606 96.475,221.500 96.360,221.370 96.360 C 221.240 96.360,221.010 96.075,220.859 95.725 C 220.708 95.376,220.372 94.826,220.113 94.504 C 219.854 94.182,219.390 93.402,219.082 92.771 C 218.775 92.140,218.333 91.245,218.100 90.783 C 217.868 90.321,217.678 89.765,217.678 89.549 C 217.678 89.332,217.478 88.901,217.235 88.591 C 216.991 88.281,216.723 87.589,216.640 87.053 C 216.556 86.516,216.314 85.609,216.101 85.038 C 215.522 83.483,215.543 71.773,216.127 70.277 C 216.345 69.721,216.522 69.035,216.522 68.752 C 216.522 68.469,216.770 67.771,217.073 67.201 C 217.376 66.631,217.695 65.843,217.781 65.450 C 217.868 65.056,218.081 64.616,218.255 64.471 C 218.430 64.327,218.641 63.897,218.724 63.516 C 218.808 63.134,219.016 62.769,219.187 62.703 C 219.358 62.638,219.562 62.292,219.641 61.934 C 219.719 61.577,219.986 61.101,220.233 60.878 C 220.480 60.654,220.682 60.367,220.682 60.240 C 220.682 60.113,220.942 59.668,221.259 59.252 C 221.577 58.835,221.837 58.418,221.837 58.325 C 221.837 58.232,221.992 57.991,222.181 57.789 C 222.370 57.588,222.968 56.914,223.510 56.290 C 224.051 55.667,224.632 55.043,224.799 54.904 C 224.967 54.765,225.324 54.417,225.592 54.131 C 225.860 53.845,226.217 53.611,226.385 53.611 C 226.553 53.611,226.690 53.452,226.690 53.258 C 226.690 53.065,226.936 52.813,227.236 52.698 C 227.536 52.584,227.845 52.327,227.922 52.126 C 227.999 51.926,228.176 51.762,228.316 51.762 C 228.455 51.762,228.900 51.528,229.305 51.241 C 230.411 50.459,230.892 50.169,231.700 49.797 C 232.104 49.610,232.492 49.366,232.562 49.253 C 232.737 48.969,234.973 47.901,235.817 47.697 C 236.199 47.605,236.745 47.378,237.031 47.193 C 237.317 47.008,238.253 46.800,239.110 46.732 C 239.968 46.664,240.921 46.445,241.228 46.245 C 242.282 45.559,246.525 45.498,247.075 46.162 M176.858 58.675 C 177.475 58.776,178.071 59.004,178.183 59.181 C 178.540 59.744,178.451 148.943,178.094 149.240 C 177.575 149.670,161.345 149.658,160.913 149.227 C 160.493 148.807,160.426 59.916,160.845 59.133 C 161.057 58.735,161.487 58.698,166.557 58.636 C 169.572 58.600,172.871 58.552,173.888 58.530 C 174.905 58.509,176.241 58.574,176.858 58.675 M134.668 76.154 L 135.182 76.514 135.182 112.636 C 135.182 145.944,135.152 148.784,134.800 149.076 C 134.099 149.659,118.318 149.658,117.598 149.075 L 117.042 148.625 117.094 112.614 L 117.145 76.603 117.639 76.199 C 118.349 75.618,133.845 75.577,134.668 76.154 M200.707 85.134 C 201.146 85.456,201.157 86.084,201.220 116.735 C 201.285 148.736,201.283 148.904,200.710 149.124 C 200.125 149.348,188.772 149.514,186.265 149.335 L 183.852 149.162 183.683 148.469 C 183.078 145.983,182.572 102.655,183.004 90.261 C 183.158 85.843,183.185 85.646,183.693 85.235 C 184.405 84.658,199.931 84.567,200.707 85.134 M155.871 95.212 C 156.310 95.576,156.390 146.845,155.954 148.097 L 155.697 148.833 147.845 148.767 L 139.993 148.700 139.552 148.155 C 138.976 147.443,139.050 96.111,139.628 95.535 C 140.163 95.001,155.256 94.700,155.871 95.212 M276.697 116.435 C 282.686 116.673,282.149 116.154,282.149 121.700 C 282.149 125.837,282.139 125.928,281.629 126.217 C 280.791 126.693,215.388 126.514,214.905 126.035 C 214.629 125.762,214.542 124.848,214.478 121.562 C 214.382 116.574,214.422 116.486,216.811 116.431 C 230.788 116.111,268.627 116.114,276.697 116.435 M265.244 128.153 C 267.882 128.371,267.845 128.292,267.769 133.505 L 267.707 137.826 267.129 138.118 C 266.127 138.625,215.298 138.544,214.875 138.035 C 214.340 137.391,214.423 129.096,214.970 128.547 C 215.578 127.937,258.550 127.600,265.244 128.153 M258.944 141.292 C 259.480 142.024,259.415 149.975,258.868 150.649 L 258.463 151.148 237.037 151.079 C 211.548 150.998,214.725 151.661,214.526 146.379 C 214.368 142.208,214.532 141.165,215.380 140.938 C 217.019 140.497,258.610 140.836,258.944 141.292 M195.090 162.231 C 193.752 163.485,194.603 165.685,196.426 165.685 C 197.627 165.685,198.702 164.193,198.264 163.135 C 197.607 161.550,196.234 161.159,195.090 162.231 " stroke="none" fill="#f1f3f3" fill-rule="evenodd"></path><path id="path5" d="M101.675 24.015 C 101.675 24.260,101.493 24.513,101.271 24.578 C 101.037 24.646,101.111 24.677,101.444 24.653 C 102.020 24.610,102.479 23.570,101.922 23.570 C 101.787 23.570,101.675 23.771,101.675 24.015 M299.753 24.072 C 299.793 24.348,299.943 24.612,300.085 24.659 C 300.248 24.713,300.302 24.527,300.232 24.157 C 300.095 23.444,299.649 23.365,299.753 24.072 M98.671 25.086 C 98.671 25.421,98.771 25.615,98.902 25.534 C 99.029 25.456,99.133 25.190,99.133 24.943 C 99.133 24.696,99.029 24.495,98.902 24.495 C 98.775 24.495,98.671 24.761,98.671 25.086 M304.333 25.972 C 304.333 26.460,304.442 26.574,304.910 26.574 C 305.334 26.574,305.488 26.451,305.488 26.112 C 305.488 25.858,305.393 25.650,305.276 25.650 C 305.159 25.650,304.899 25.587,304.698 25.510 C 304.423 25.404,304.333 25.517,304.333 25.972 M95.369 27.036 C 95.474 27.436,95.376 27.499,94.647 27.499 C 93.764 27.499,93.260 28.127,93.545 28.873 C 93.633 29.104,93.701 29.122,93.765 28.931 C 93.816 28.779,93.992 28.654,94.158 28.654 C 94.323 28.654,94.512 28.446,94.579 28.192 C 94.651 27.915,94.894 27.730,95.183 27.730 C 95.545 27.730,95.667 27.584,95.667 27.152 C 95.667 26.834,95.573 26.574,95.458 26.574 C 95.343 26.574,95.303 26.782,95.369 27.036 M307.568 28.945 C 307.568 29.232,307.776 29.597,308.030 29.756 C 308.452 30.019,308.492 29.987,308.492 29.374 C 308.492 28.976,308.344 28.646,308.127 28.563 C 307.591 28.358,307.568 28.374,307.568 28.945 M308.328 30.822 C 308.433 31.142,309.417 31.310,309.417 31.008 C 309.417 30.887,309.152 30.737,308.830 30.675 C 308.459 30.605,308.274 30.659,308.328 30.822 M310.341 33.160 C 310.341 33.353,310.135 33.507,309.879 33.507 C 309.237 33.507,309.298 33.892,309.960 34.019 C 310.425 34.108,310.506 34.027,310.522 33.468 C 310.533 33.108,310.496 32.813,310.441 32.813 C 310.386 32.813,310.341 32.969,310.341 33.160 M178.924 34.141 C 179.915 34.184,181.475 34.184,182.391 34.140 C 183.306 34.096,182.496 34.061,180.589 34.061 C 178.683 34.062,177.934 34.097,178.924 34.141 M103.191 34.785 C 102.620 35.217,102.996 35.212,103.755 34.778 C 104.090 34.586,104.187 34.447,103.986 34.447 C 103.795 34.446,103.438 34.598,103.191 34.785 M298.391 34.952 C 298.746 35.237,299.183 35.887,299.363 36.395 C 299.544 36.904,299.695 37.131,299.701 36.900 C 299.720 36.123,298.550 34.430,297.996 34.432 C 297.859 34.433,298.037 34.667,298.391 34.952 M101.793 35.815 C 101.429 36.195,101.176 36.543,101.230 36.588 C 101.284 36.633,101.625 36.322,101.987 35.897 C 102.804 34.937,102.683 34.886,101.793 35.815 M90.663 38.013 C 90.664 39.029,90.704 39.417,90.753 38.873 C 90.802 38.330,90.801 37.498,90.751 37.025 C 90.702 36.551,90.662 36.996,90.663 38.013 M100.647 39.210 C 100.010 44.974,100.331 155.399,100.989 156.983 C 101.143 157.354,101.168 157.245,101.087 156.557 C 100.537 151.876,100.257 60.055,100.746 44.604 C 100.954 38.040,100.928 36.663,100.647 39.210 M89.577 41.859 C 89.495 42.640,89.449 44.746,89.475 46.539 C 89.506 48.674,89.549 49.149,89.600 47.915 C 89.671 46.177,89.712 46.042,90.130 46.151 C 90.562 46.264,90.583 46.137,90.583 43.432 C 90.583 41.870,90.515 40.662,90.431 40.745 C 90.348 40.829,90.155 40.794,90.002 40.667 C 89.794 40.494,89.688 40.791,89.577 41.859 M299.825 94.512 C 299.825 122.917,299.852 134.538,299.884 120.335 C 299.917 106.132,299.917 82.891,299.884 68.689 C 299.852 54.486,299.825 66.106,299.825 94.512 M242.205 46.250 C 241.778 46.373,241.486 46.532,241.557 46.603 C 241.628 46.674,242.019 46.616,242.426 46.474 C 243.663 46.043,246.494 46.138,246.775 46.620 C 246.905 46.843,247.014 46.916,247.018 46.782 C 247.040 46.004,244.166 45.686,242.205 46.250 M238.128 47.248 C 237.236 47.656,237.651 47.662,238.706 47.256 C 239.151 47.085,239.359 46.941,239.168 46.937 C 238.977 46.933,238.510 47.073,238.128 47.248 M247.128 54.419 C 247.128 58.486,247.159 60.118,247.198 58.044 C 247.236 55.971,247.236 52.644,247.198 50.650 C 247.159 48.656,247.128 50.352,247.128 54.419 M235.182 48.197 C 234.832 48.386,234.547 48.593,234.547 48.656 C 234.547 48.718,234.832 48.625,235.182 48.449 C 235.531 48.272,235.973 48.070,236.164 47.999 C 236.472 47.884,236.472 47.869,236.164 47.861 C 235.973 47.856,235.531 48.007,235.182 48.197 M233.128 49.238 C 232.828 49.502,232.713 49.651,232.872 49.570 C 234.196 48.897,234.394 48.761,234.052 48.759 C 233.844 48.759,233.428 48.974,233.128 49.238 M230.116 51.063 C 229.140 51.695,228.278 52.315,228.200 52.442 C 228.070 52.653,231.365 50.561,231.878 50.107 C 232.389 49.655,231.777 49.987,230.116 51.063 M225.765 54.370 C 225.035 55.019,222.898 57.308,223.022 57.308 C 223.073 57.308,223.885 56.528,224.826 55.575 C 226.502 53.877,226.913 53.349,225.765 54.370 M222.299 58.290 C 221.958 58.755,221.903 58.916,222.152 58.713 C 222.531 58.406,223.104 57.539,222.929 57.539 C 222.884 57.539,222.601 57.877,222.299 58.290 M165.988 58.867 C 167.998 58.906,171.221 58.906,173.151 58.867 C 175.082 58.829,173.437 58.797,169.497 58.797 C 165.557 58.797,163.978 58.829,165.988 58.867 M161.075 59.257 C 160.924 59.439,160.843 59.933,160.895 60.355 L 160.989 61.121 161.026 60.247 C 161.054 59.576,161.184 59.324,161.583 59.164 C 161.935 59.022,161.981 58.950,161.727 58.940 C 161.520 58.932,161.227 59.075,161.075 59.257 M177.440 59.330 C 177.854 59.675,177.935 60.037,177.996 61.814 L 178.068 63.894 178.115 61.773 C 178.163 59.659,177.926 58.925,177.196 58.925 C 177.064 58.925,177.174 59.107,177.440 59.330 M220.078 61.590 C 219.867 61.912,219.737 62.217,219.788 62.268 C 219.840 62.320,220.057 62.057,220.271 61.684 C 220.748 60.853,220.606 60.784,220.078 61.590 M219.154 63.208 C 218.943 63.529,218.816 63.838,218.872 63.894 C 218.927 63.949,219.155 63.686,219.378 63.309 C 219.872 62.474,219.689 62.391,219.154 63.208 M217.265 67.576 C 216.878 68.425,216.914 68.603,217.348 67.983 C 217.548 67.697,217.674 67.350,217.628 67.212 C 217.582 67.074,217.419 67.238,217.265 67.576 M216.309 71.191 C 216.145 71.831,216.054 72.399,216.108 72.453 C 216.162 72.507,216.340 72.027,216.504 71.386 C 216.669 70.745,216.759 70.177,216.705 70.123 C 216.651 70.070,216.473 70.550,216.309 71.191 M215.887 73.830 C 215.890 74.339,215.937 74.519,215.992 74.232 C 216.048 73.944,216.046 73.528,215.988 73.308 C 215.930 73.087,215.885 73.322,215.887 73.830 M118.544 76.186 C 117.623 76.515,117.618 76.596,117.675 89.183 L 117.729 101.329 117.848 89.088 L 117.966 76.848 118.544 76.556 C 119.613 76.015,133.371 76.142,134.059 76.698 L 134.604 77.140 134.680 112.614 L 134.755 148.087 134.275 148.567 C 133.776 149.066,133.889 149.200,134.489 148.821 C 134.794 148.627,134.835 144.367,134.835 112.755 L 134.835 76.909 134.290 76.467 C 133.755 76.034,119.672 75.783,118.544 76.186 M247.259 76.894 C 247.267 77.256,247.677 77.695,247.928 77.612 C 248.087 77.559,248.006 77.366,247.723 77.124 C 247.466 76.903,247.258 76.800,247.259 76.894 M263.663 77.872 L 279.029 77.990 279.164 79.376 L 279.298 80.763 279.337 79.480 C 279.397 77.494,280.658 77.636,263.559 77.698 L 248.296 77.754 263.663 77.872 M215.848 81.641 C 215.823 82.176,216.538 85.330,216.657 85.211 C 216.706 85.162,216.549 84.244,216.307 83.173 C 216.066 82.101,215.859 81.412,215.848 81.641 M278.746 82.842 C 278.226 85.385,278.214 85.627,278.686 84.113 C 278.943 83.287,279.125 82.351,279.091 82.034 C 279.053 81.675,278.922 81.981,278.746 82.842 M185.564 85.203 C 184.201 85.304,183.693 85.570,183.736 86.163 C 183.758 86.481,183.779 86.477,183.868 86.135 C 184.045 85.460,184.931 85.384,192.548 85.393 C 201.242 85.402,200.477 85.103,200.788 88.620 L 201.013 91.161 200.925 88.526 C 200.858 86.509,200.751 85.805,200.468 85.522 C 200.104 85.158,189.323 84.927,185.564 85.203 M277.850 86.698 C 277.710 87.119,277.522 87.672,277.432 87.926 C 277.343 88.180,277.490 87.991,277.759 87.505 C 278.028 87.020,278.216 86.467,278.177 86.278 C 278.137 86.088,277.991 86.277,277.850 86.698 M216.992 87.246 C 216.988 87.381,217.137 87.693,217.324 87.940 C 217.510 88.186,217.666 88.278,217.670 88.144 C 217.674 88.009,217.525 87.697,217.338 87.450 C 217.152 87.204,216.996 87.112,216.992 87.246 M183.362 96.619 C 183.216 104.502,183.403 139.782,183.592 139.989 C 183.627 140.027,183.641 128.198,183.624 113.703 C 183.607 99.208,183.580 87.348,183.563 87.348 C 183.547 87.348,183.456 91.520,183.362 96.619 M217.909 89.831 C 217.909 89.959,218.065 90.194,218.255 90.352 C 218.446 90.511,218.610 90.809,218.620 91.016 C 218.632 91.252,218.682 91.285,218.754 91.106 C 218.818 90.948,218.654 90.544,218.389 90.208 C 218.125 89.872,217.909 89.702,217.909 89.831 M218.841 91.623 C 218.845 91.750,219.104 92.270,219.417 92.779 C 219.730 93.287,219.983 93.599,219.980 93.472 C 219.977 93.345,219.718 92.825,219.405 92.317 C 219.092 91.808,218.838 91.496,218.841 91.623 M275.621 92.094 C 275.044 92.866,275.119 93.081,275.705 92.336 C 275.974 91.994,276.156 91.678,276.110 91.634 C 276.063 91.589,275.843 91.796,275.621 92.094 M273.689 95.277 C 273.427 95.682,273.052 96.274,272.856 96.592 C 272.660 96.909,272.232 97.455,271.905 97.805 C 271.578 98.154,271.392 98.440,271.492 98.440 C 271.824 98.440,274.456 94.830,274.264 94.637 C 274.210 94.584,273.952 94.872,273.689 95.277 M200.862 121.202 C 200.799 148.986,200.817 148.388,200.038 148.788 C 199.577 149.025,199.574 149.040,199.998 148.985 C 201.060 148.848,201.045 149.259,200.982 121.284 L 200.922 94.858 200.862 121.202 M221.122 95.626 C 221.262 95.889,221.491 96.174,221.630 96.260 C 221.812 96.372,221.811 96.281,221.628 95.939 C 221.487 95.677,221.259 95.392,221.120 95.306 C 220.938 95.194,220.939 95.285,221.122 95.626 M223.637 98.787 C 224.574 99.942,226.518 101.861,227.623 102.721 C 227.945 102.972,227.581 102.588,226.814 101.867 C 226.047 101.146,224.807 99.899,224.059 99.094 C 223.009 97.964,222.913 97.894,223.637 98.787 M268.862 100.928 C 267.591 102.158,266.967 102.837,267.475 102.438 C 268.439 101.681,269.540 100.642,270.696 99.401 C 271.984 98.017,271.166 98.698,268.862 100.928 M160.659 102.484 C 160.662 102.992,160.709 103.173,160.764 102.886 C 160.820 102.598,160.817 102.182,160.760 101.961 C 160.702 101.741,160.657 101.976,160.659 102.484 M264.891 104.043 C 264.105 104.579,263.495 105.051,263.536 105.092 C 263.618 105.174,266.436 103.281,266.436 103.145 C 266.436 102.998,266.346 103.051,264.891 104.043 M230.331 104.853 C 230.630 105.139,230.999 105.369,231.151 105.366 C 231.303 105.362,231.219 105.243,230.965 105.102 C 230.711 104.961,230.342 104.730,230.145 104.589 C 229.948 104.448,230.032 104.567,230.331 104.853 M231.972 105.821 C 232.272 106.083,232.628 106.297,232.762 106.297 C 233.046 106.297,233.033 106.285,232.120 105.751 L 231.427 105.345 231.972 105.821 M259.969 106.772 C 259.526 107.019,259.318 107.219,259.507 107.216 C 259.695 107.213,260.110 107.008,260.427 106.759 C 261.153 106.191,261.003 106.196,259.969 106.772 M236.266 107.806 C 236.513 107.993,236.877 108.145,237.075 108.144 C 237.273 108.143,237.137 107.987,236.773 107.798 C 235.935 107.361,235.682 107.365,236.266 107.806 M257.192 107.817 L 256.615 108.165 257.192 108.014 C 257.510 107.931,257.869 107.770,257.990 107.657 C 258.343 107.328,257.836 107.429,257.192 107.817 M239.559 108.716 C 239.964 108.905,240.744 109.114,241.292 109.180 L 242.288 109.300 241.132 108.974 C 239.055 108.388,238.747 108.337,239.559 108.716 M250.197 109.237 C 250.607 109.288,251.335 109.289,251.815 109.239 C 252.294 109.189,251.958 109.147,251.069 109.146 C 250.179 109.145,249.787 109.186,250.197 109.237 M244.780 109.472 C 245.516 109.518,246.660 109.518,247.322 109.471 C 247.985 109.425,247.383 109.387,245.985 109.387 C 244.587 109.388,244.045 109.426,244.780 109.472 M89.484 136.723 C 89.453 148.310,89.487 157.943,89.559 158.130 C 89.882 158.973,90.609 158.268,90.537 157.180 C 90.469 156.146,89.944 155.536,89.834 156.364 C 89.804 156.597,89.725 147.533,89.659 136.222 L 89.540 115.656 89.484 136.723 M219.136 116.868 C 221.146 116.907,224.370 116.907,226.300 116.868 C 228.230 116.830,226.586 116.798,222.646 116.798 C 218.706 116.798,217.127 116.830,219.136 116.868 M274.362 116.868 C 275.608 116.910,277.584 116.909,278.753 116.868 C 279.922 116.826,278.902 116.792,276.488 116.792 C 274.073 116.792,273.116 116.826,274.362 116.868 M281.153 117.158 C 281.943 118.256,281.749 125.494,280.918 125.896 C 280.515 126.090,280.495 126.142,280.815 126.154 C 282.029 126.202,282.507 118.281,281.353 117.223 C 281.101 116.992,281.013 116.963,281.153 117.158 M214.767 121.202 C 214.767 123.235,214.803 124.036,214.846 122.982 C 214.889 121.927,214.888 120.263,214.845 119.284 C 214.802 118.305,214.767 119.168,214.767 121.202 M214.919 125.275 C 214.898 125.813,215.484 126.222,216.105 126.104 C 216.572 126.014,216.559 125.998,215.995 125.970 C 215.562 125.949,215.284 125.769,215.143 125.419 C 215.002 125.067,214.929 125.020,214.919 125.275 M260.962 126.343 C 263.099 126.381,266.531 126.381,268.588 126.343 C 270.645 126.304,268.897 126.273,264.702 126.273 C 260.508 126.273,258.825 126.305,260.962 126.343 M219.180 128.459 C 217.527 128.535,226.933 128.625,240.080 128.661 C 253.227 128.696,263.938 128.683,263.881 128.632 C 263.707 128.473,222.373 128.313,219.180 128.459 M266.845 128.973 C 267.064 129.254,267.124 130.406,267.077 133.479 L 267.013 137.608 265.165 137.757 C 262.127 138.002,216.400 137.985,215.753 137.739 C 215.435 137.618,215.126 137.331,215.066 137.102 C 214.974 136.744,214.954 136.740,214.931 137.072 C 214.849 138.263,213.598 138.212,241.124 138.139 C 262.300 138.082,266.660 138.017,266.978 137.753 C 267.570 137.262,267.550 129.379,266.956 128.913 C 266.595 128.631,266.583 128.637,266.845 128.973 M214.767 133.102 C 214.767 135.072,214.802 135.878,214.845 134.893 C 214.889 133.908,214.889 132.296,214.845 131.311 C 214.802 130.326,214.767 131.132,214.767 133.102 M178.237 131.485 C 178.237 132.311,178.279 132.649,178.330 132.236 C 178.381 131.823,178.381 131.147,178.330 130.734 C 178.279 130.321,178.237 130.659,178.237 131.485 M160.702 140.843 C 160.702 144.275,160.734 145.711,160.773 144.035 C 160.813 142.358,160.813 139.551,160.774 137.795 C 160.734 136.040,160.702 137.412,160.702 140.843 M222.087 141.132 C 215.660 141.196,214.905 141.283,214.905 141.956 C 214.905 142.092,215.035 142.031,215.194 141.820 C 215.455 141.473,217.066 141.418,232.351 141.236 C 245.057 141.085,246.682 141.039,238.937 141.051 C 233.281 141.060,225.699 141.096,222.087 141.132 M254.338 141.363 C 257.129 141.415,258.135 141.511,258.330 141.746 C 258.847 142.369,258.773 149.720,258.246 150.105 C 257.867 150.383,254.741 150.433,238.046 150.433 C 227.182 150.433,218.337 150.474,218.390 150.525 C 218.606 150.730,238.131 150.848,247.910 150.704 C 260.512 150.517,259.100 151.150,258.998 145.735 C 258.906 140.827,259.267 141.173,254.317 141.242 L 250.607 141.293 254.338 141.363 M214.765 145.465 C 214.765 147.244,214.801 147.942,214.845 147.015 C 214.889 146.088,214.889 144.632,214.845 143.780 C 214.800 142.927,214.764 143.686,214.765 145.465 M183.778 146.967 C 183.778 147.666,183.821 147.952,183.874 147.603 C 183.927 147.253,183.927 146.681,183.874 146.332 C 183.821 145.982,183.778 146.268,183.778 146.967 M117.653 147.903 C 117.596 149.309,117.432 149.283,125.927 149.225 L 133.680 149.172 125.823 149.051 L 117.966 148.931 117.826 148.007 L 117.685 147.083 117.653 147.903 M189.557 149.220 C 191.313 149.259,194.120 149.259,195.797 149.219 C 197.473 149.180,196.037 149.148,192.605 149.148 C 189.174 149.148,187.802 149.180,189.557 149.220 M214.908 149.235 C 214.901 149.909,215.392 150.433,216.010 150.410 L 216.638 150.387 216.062 150.227 C 215.745 150.139,215.357 149.811,215.199 149.499 C 215.041 149.187,214.910 149.068,214.908 149.235 M299.439 156.095 C 299.363 156.349,299.225 156.765,299.131 157.019 C 298.985 157.415,299.017 157.406,299.352 156.957 C 299.567 156.669,299.706 156.253,299.660 156.033 C 299.588 155.686,299.559 155.694,299.439 156.095 M101.213 157.833 C 101.213 158.124,103.123 159.694,103.275 159.528 C 103.348 159.448,103.252 159.328,103.062 159.261 C 102.871 159.195,102.377 158.803,101.964 158.392 C 101.551 157.980,101.213 157.728,101.213 157.833 M297.909 158.851 C 296.966 159.519,296.803 159.678,297.073 159.670 C 297.189 159.667,297.649 159.358,298.094 158.983 C 299.060 158.169,298.968 158.103,297.909 158.851 M309.936 158.701 C 309.286 158.805,309.263 159.120,309.893 159.285 C 310.189 159.362,310.418 159.281,310.499 159.071 C 310.662 158.647,310.586 158.598,309.936 158.701 M105.199 159.848 C 106.184 159.892,107.796 159.892,108.781 159.848 C 109.766 159.805,108.960 159.769,106.990 159.769 C 105.020 159.769,104.214 159.805,105.199 159.848 M290.413 159.840 C 290.700 159.895,291.116 159.893,291.337 159.835 C 291.558 159.777,291.323 159.732,290.815 159.735 C 290.306 159.737,290.125 159.785,290.413 159.840 M294.333 159.843 C 294.744 159.894,295.472 159.895,295.951 159.845 C 296.430 159.795,296.095 159.753,295.205 159.752 C 294.315 159.751,293.923 159.792,294.333 159.843 M162.161 160.081 C 183.163 160.113,217.530 160.113,238.533 160.081 C 259.535 160.048,242.351 160.022,200.347 160.022 C 158.342 160.022,141.158 160.048,162.161 160.081 M194.801 161.641 C 194.502 161.958,194.374 162.218,194.516 162.218 C 194.658 162.218,194.913 162.021,195.082 161.779 C 195.251 161.538,195.647 161.292,195.962 161.233 L 196.534 161.126 195.939 161.094 C 195.573 161.075,195.134 161.286,194.801 161.641 M196.880 161.234 C 197.071 161.308,197.565 161.736,197.978 162.185 C 198.391 162.634,198.729 162.924,198.729 162.830 C 198.729 162.508,197.182 161.063,196.857 161.081 C 196.602 161.096,196.607 161.128,196.880 161.234 M308.492 161.987 C 308.492 162.295,308.646 162.449,308.954 162.449 C 309.262 162.449,309.417 162.295,309.417 161.987 C 309.417 161.679,309.262 161.525,308.954 161.525 C 308.646 161.525,308.492 161.679,308.492 161.987 M307.337 163.822 C 307.337 164.367,307.631 164.579,308.125 164.390 C 308.742 164.153,308.580 163.374,307.915 163.374 C 307.497 163.374,307.337 163.498,307.337 163.822 M92.432 164.542 C 92.432 165.039,92.759 165.453,93.150 165.453 C 93.831 165.453,93.710 164.606,93.010 164.473 C 92.692 164.412,92.432 164.443,92.432 164.542 M95.590 167.456 C 95.505 167.541,95.436 167.769,95.436 167.963 C 95.436 168.272,95.471 168.270,95.725 167.951 C 95.884 167.750,96.170 167.531,96.360 167.463 C 96.598 167.377,96.556 167.333,96.226 167.320 C 95.961 167.310,95.675 167.371,95.590 167.456 M97.516 168.670 C 97.516 169.144,97.816 169.613,98.118 169.613 C 98.308 169.613,98.440 169.375,98.440 169.035 C 98.440 168.612,98.317 168.458,97.978 168.458 C 97.724 168.458,97.516 168.553,97.516 168.670 M100.923 169.948 C 101.065 170.689,101.739 170.757,101.634 170.020 C 101.593 169.735,101.391 169.470,101.185 169.431 C 100.898 169.376,100.837 169.496,100.923 169.948 M298.941 169.536 C 298.714 169.762,298.753 170.537,298.991 170.537 C 299.103 170.537,299.245 170.277,299.306 169.960 C 299.413 169.400,299.257 169.220,298.941 169.536 M172.617 173.079 C 172.617 173.387,172.771 173.541,173.079 173.541 C 173.387 173.541,173.541 173.387,173.541 173.079 C 173.541 172.771,173.387 172.617,173.079 172.617 C 172.771 172.617,172.617 172.771,172.617 173.079 M218.371 183.103 C 218.371 189.843,218.417 190.854,218.735 191.118 C 219.432 191.697,219.519 190.809,219.523 183.073 L 219.526 175.390 218.949 175.390 L 218.371 175.390 218.371 183.103 M219.064 192.143 C 219.064 192.461,219.104 192.721,219.153 192.721 C 219.201 192.721,219.291 192.461,219.352 192.143 C 219.413 191.826,219.373 191.566,219.263 191.566 C 219.154 191.566,219.064 191.826,219.064 192.143 M172.155 192.490 L 171.577 192.675 172.213 192.698 C 172.562 192.711,172.848 192.617,172.848 192.490 C 172.848 192.363,172.822 192.269,172.790 192.282 C 172.759 192.295,172.473 192.388,172.155 192.490 M170.510 193.133 C 170.434 193.592,170.468 193.807,170.596 193.679 C 170.712 193.563,170.769 193.222,170.721 192.921 C 170.649 192.458,170.616 192.491,170.510 193.133 M168.707 194.034 C 168.695 194.365,168.510 194.572,168.169 194.638 L 167.649 194.738 168.176 194.769 C 168.723 194.802,169.051 194.340,168.844 193.826 C 168.779 193.663,168.717 193.756,168.707 194.034 M166.840 194.986 C 166.840 195.214,166.710 195.532,166.551 195.692 C 166.320 195.926,166.342 195.953,166.667 195.830 C 167.018 195.696,167.276 194.570,166.956 194.570 C 166.892 194.570,166.840 194.757,166.840 194.986 M228.307 197.111 C 228.307 197.450,228.461 197.574,228.885 197.574 C 229.309 197.574,229.463 197.450,229.463 197.111 C 229.463 196.773,229.309 196.649,228.885 196.649 C 228.461 196.649,228.307 196.773,228.307 197.111 M160.755 197.728 C 160.365 198.117,160.610 198.760,161.121 198.687 C 161.800 198.591,162.008 197.574,161.349 197.574 C 161.107 197.574,160.840 197.643,160.755 197.728 M230.242 197.913 C 230.172 198.096,230.182 198.354,230.265 198.487 C 230.446 198.781,231.311 198.811,231.311 198.524 C 231.311 198.411,231.141 198.333,230.932 198.350 C 230.723 198.368,230.506 198.252,230.450 198.093 C 230.385 197.909,230.481 197.855,230.714 197.945 C 230.916 198.022,231.080 198.033,231.080 197.970 C 231.080 197.669,230.355 197.620,230.242 197.913 M158.625 198.702 C 158.568 198.759,158.521 198.997,158.521 199.230 C 158.521 199.499,158.353 199.653,158.059 199.653 C 157.676 199.653,157.597 199.807,157.597 200.556 C 157.597 201.736,158.451 201.683,158.566 200.496 C 158.620 199.945,158.762 199.751,159.157 199.695 C 159.867 199.594,159.911 198.509,159.203 198.562 C 158.942 198.582,158.682 198.645,158.625 198.702 M232.098 199.191 C 232.116 199.655,232.246 199.774,232.758 199.797 C 233.315 199.822,233.324 199.812,232.830 199.725 C 232.474 199.662,232.229 199.438,232.170 199.119 C 232.093 198.705,232.080 198.718,232.098 199.191 M157.597 203.589 C 157.597 204.413,157.655 204.506,158.174 204.506 C 159.086 204.506,158.948 203.171,158.001 202.821 C 157.659 202.695,157.597 202.813,157.597 203.589 " stroke="none" fill="#b0dcf3" fill-rule="evenodd"></path><path id="path6" d="M100.674 23.724 C 100.323 24.075,100.554 24.495,101.098 24.495 C 101.521 24.495,101.675 24.371,101.675 24.032 C 101.675 23.581,101.019 23.379,100.674 23.724 M300.215 24.090 C 300.273 24.498,300.413 24.593,300.867 24.530 C 301.587 24.429,301.603 24.413,301.425 23.950 C 301.187 23.330,300.125 23.453,300.215 24.090 M97.604 24.830 C 97.425 25.297,97.691 25.650,98.223 25.650 C 98.547 25.650,98.671 25.490,98.671 25.072 C 98.671 24.422,97.833 24.232,97.604 24.830 M94.671 26.723 C 94.344 27.051,94.529 27.499,94.991 27.499 C 95.314 27.499,95.446 27.373,95.395 27.113 C 95.313 26.688,94.918 26.476,94.671 26.723 M92.779 28.600 C 92.293 28.956,92.467 29.578,93.052 29.578 C 93.503 29.578,93.605 29.475,93.546 29.076 C 93.466 28.531,93.144 28.332,92.779 28.600 M308.401 29.946 C 308.211 30.439,308.424 30.734,308.968 30.734 C 309.292 30.734,309.417 30.574,309.417 30.156 C 309.417 29.490,308.637 29.329,308.401 29.946 M309.417 33.018 C 309.417 33.285,309.616 33.491,309.936 33.552 C 310.354 33.632,310.456 33.547,310.456 33.117 C 310.456 32.717,310.326 32.582,309.936 32.582 C 309.581 32.582,309.417 32.720,309.417 33.018 M104.448 34.525 C 101.021 35.816,101.028 35.796,100.749 44.576 C 100.446 54.150,100.459 137.679,100.766 148.007 C 101.039 157.200,101.114 157.754,102.200 158.623 C 102.610 158.952,103.072 159.324,103.225 159.449 C 103.379 159.574,103.743 159.670,104.034 159.662 C 104.443 159.651,104.327 159.533,103.524 159.142 C 102.952 158.864,102.448 158.553,102.403 158.450 C 102.358 158.348,102.098 158.056,101.825 157.802 C 101.341 157.351,101.325 157.139,101.181 148.976 C 100.990 138.199,100.991 53.383,101.183 44.136 L 101.329 37.088 102.008 36.239 C 102.475 35.656,102.944 35.343,103.510 35.240 C 103.963 35.158,104.563 34.942,104.844 34.761 C 105.284 34.477,118.685 34.423,200.974 34.373 L 296.592 34.315 200.924 34.268 C 122.222 34.229,105.114 34.274,104.448 34.525 M297.656 34.945 C 299.320 35.677,299.335 35.795,299.483 49.220 L 299.608 60.659 299.658 49.105 C 299.692 41.296,299.627 37.255,299.456 36.640 C 299.139 35.499,298.029 34.423,297.203 34.454 C 296.674 34.474,296.736 34.540,297.656 34.945 M89.582 35.740 C 89.497 35.825,89.444 37.359,89.463 39.149 C 89.483 41.031,89.556 41.965,89.636 41.363 C 89.724 40.702,89.844 40.430,89.964 40.616 C 90.392 41.278,90.583 40.505,90.583 38.115 C 90.583 35.591,90.331 34.992,89.582 35.740 M243.674 45.765 C 242.657 45.835,241.583 46.025,241.286 46.188 C 240.427 46.660,240.864 46.738,242.099 46.334 C 243.916 45.739,246.579 45.928,246.958 46.678 C 247.229 47.215,247.249 47.221,247.253 46.764 C 247.259 45.790,246.479 45.572,243.674 45.765 M237.709 46.913 C 237.351 47.020,236.936 47.205,236.785 47.324 C 236.634 47.442,236.199 47.612,235.817 47.702 C 234.981 47.898,232.739 48.966,232.562 49.253 C 232.492 49.366,232.104 49.610,231.700 49.797 C 230.920 50.156,230.464 50.428,229.347 51.201 C 228.966 51.465,228.472 51.748,228.250 51.830 C 228.027 51.911,227.845 52.088,227.845 52.223 C 227.845 52.357,227.585 52.566,227.267 52.686 C 226.950 52.807,226.690 53.065,226.690 53.258 C 226.690 53.452,226.553 53.611,226.385 53.611 C 226.217 53.611,225.860 53.845,225.592 54.131 C 225.324 54.417,224.967 54.765,224.799 54.904 C 224.632 55.043,224.051 55.667,223.510 56.290 C 222.968 56.914,222.370 57.588,222.181 57.789 C 221.992 57.991,221.837 58.232,221.837 58.325 C 221.837 58.418,221.577 58.835,221.259 59.252 C 220.942 59.668,220.682 60.113,220.682 60.240 C 220.682 60.367,220.480 60.654,220.233 60.878 C 219.986 61.101,219.719 61.577,219.641 61.934 C 219.562 62.292,219.358 62.638,219.187 62.703 C 219.016 62.769,218.808 63.134,218.724 63.516 C 218.641 63.897,218.430 64.327,218.255 64.471 C 218.081 64.616,217.868 65.056,217.781 65.450 C 217.695 65.843,217.376 66.631,217.073 67.201 C 216.770 67.771,216.522 68.469,216.522 68.752 C 216.522 69.035,216.355 69.721,216.151 70.277 C 215.877 71.025,215.763 72.311,215.717 75.217 L 215.653 79.145 215.807 75.794 C 215.992 71.774,217.037 67.375,218.381 64.963 C 218.496 64.756,218.753 64.223,218.951 63.778 C 220.609 60.061,224.796 54.790,227.761 52.689 C 228.555 52.126,231.357 50.273,232.236 49.730 C 233.035 49.235,233.318 49.093,235.124 48.276 C 236.289 47.749,238.311 47.116,239.515 46.901 L 240.439 46.736 239.399 46.727 C 238.827 46.722,238.067 46.806,237.709 46.913 M247.325 48.527 C 247.325 49.226,247.368 49.512,247.421 49.162 C 247.474 48.813,247.474 48.241,247.421 47.891 C 247.368 47.542,247.325 47.828,247.325 48.527 M247.311 65.791 L 247.256 76.701 247.762 77.172 C 248.260 77.636,248.490 77.643,263.544 77.643 C 280.325 77.643,279.362 77.552,279.397 79.133 L 279.418 80.069 279.630 79.338 C 279.893 78.427,279.548 77.411,278.977 77.415 C 271.322 77.477,248.609 77.110,248.125 76.917 L 247.491 76.664 247.429 65.773 L 247.367 54.882 247.311 65.791 M172.906 58.633 C 173.510 58.681,174.497 58.681,175.101 58.633 C 175.705 58.586,175.211 58.547,174.003 58.547 C 172.796 58.547,172.302 58.586,172.906 58.633 M160.839 59.144 C 160.676 59.448,160.618 66.408,160.659 80.692 L 160.719 101.791 160.775 80.618 C 160.836 57.977,160.774 59.087,161.987 58.864 C 162.480 58.773,162.456 58.753,161.822 58.726 C 161.301 58.704,161.007 58.829,160.839 59.144 M177.181 58.953 C 177.594 59.072,177.957 59.193,177.988 59.221 C 178.018 59.249,178.097 74.662,178.163 93.472 L 178.281 127.672 178.338 93.546 C 178.400 56.048,178.496 58.666,177.049 58.715 C 176.459 58.735,176.465 58.746,177.181 58.953 M117.639 76.199 L 117.145 76.603 117.094 112.614 L 117.042 148.625 117.598 149.075 C 118.318 149.658,134.099 149.659,134.800 149.076 C 135.152 148.784,135.182 145.944,135.182 112.636 L 135.182 76.514 134.668 76.154 C 133.845 75.577,118.349 75.618,117.639 76.199 M134.290 76.467 L 134.835 76.909 134.902 112.111 C 134.974 150.615,135.022 148.665,133.985 149.027 C 132.928 149.395,118.268 149.372,117.897 149.001 C 117.484 148.587,117.495 77.195,117.909 76.674 C 118.381 76.078,118.587 76.063,126.318 76.044 C 133.301 76.027,133.777 76.052,134.290 76.467 M215.728 81.988 C 215.786 83.297,215.973 84.703,216.143 85.111 C 216.314 85.520,216.527 86.342,216.616 86.938 C 216.706 87.534,216.977 88.260,217.220 88.552 C 217.799 89.245,217.796 88.834,217.215 87.695 C 216.961 87.196,216.752 86.524,216.751 86.202 C 216.749 85.879,216.587 85.095,216.391 84.460 C 216.194 83.824,215.941 82.473,215.828 81.456 L 215.622 79.607 215.728 81.988 M279.151 81.514 C 279.159 82.604,278.304 86.221,277.730 87.528 C 277.492 88.071,277.296 88.633,277.296 88.776 C 277.296 89.057,276.269 91.401,275.896 91.970 C 275.772 92.161,275.522 92.637,275.341 93.028 C 275.160 93.420,274.850 93.874,274.652 94.039 C 274.454 94.203,274.292 94.444,274.292 94.574 C 274.292 94.917,272.855 97.030,271.949 98.019 C 269.796 100.370,268.991 101.177,267.935 102.047 C 266.510 103.221,263.735 105.142,263.464 105.142 C 263.353 105.142,263.015 105.335,262.712 105.572 C 262.409 105.809,261.901 106.082,261.583 106.180 C 261.265 106.278,260.745 106.539,260.427 106.761 C 260.110 106.982,259.511 107.237,259.096 107.327 C 258.682 107.417,258.039 107.642,257.667 107.828 C 257.294 108.013,256.438 108.261,255.762 108.379 C 253.782 108.724,252.249 109.266,253.198 109.286 C 253.607 109.294,254.403 109.144,254.968 108.952 C 255.532 108.761,256.543 108.500,257.213 108.373 C 257.883 108.246,258.603 107.987,258.812 107.797 C 259.022 107.607,259.362 107.452,259.568 107.452 C 260.059 107.452,261.121 106.965,261.121 106.740 C 261.121 106.644,261.422 106.499,261.790 106.418 C 262.158 106.337,262.642 106.069,262.866 105.822 C 263.089 105.575,263.451 105.373,263.670 105.373 C 263.889 105.373,264.211 105.201,264.385 104.990 C 264.560 104.780,265.040 104.467,265.453 104.294 C 265.867 104.121,266.205 103.894,266.205 103.789 C 266.205 103.684,266.459 103.482,266.771 103.340 C 267.540 102.990,272.444 98.228,272.444 97.832 C 272.444 97.658,272.534 97.516,272.645 97.516 C 272.756 97.516,273.198 96.940,273.627 96.235 C 274.057 95.531,274.642 94.694,274.928 94.375 C 275.214 94.056,275.448 93.687,275.448 93.554 C 275.448 93.422,275.656 93.049,275.910 92.726 C 276.164 92.403,276.372 91.957,276.372 91.736 C 276.372 91.515,276.527 91.204,276.717 91.047 C 276.907 90.890,277.170 90.331,277.301 89.806 C 277.433 89.280,277.684 88.590,277.860 88.273 C 278.035 87.955,278.249 87.279,278.335 86.771 C 278.422 86.262,278.642 85.512,278.825 85.104 C 279.170 84.335,279.559 80.647,279.295 80.647 C 279.212 80.647,279.148 81.037,279.151 81.514 M183.693 85.235 C 183.185 85.646,183.158 85.843,183.004 90.261 C 182.766 97.101,182.960 137.679,183.257 143.088 C 183.605 149.422,183.520 149.157,185.225 149.184 C 186.589 149.205,186.590 149.205,185.374 149.114 C 183.757 148.992,183.804 149.188,183.628 141.883 C 183.036 117.332,183.256 86.316,184.027 85.544 C 184.642 84.930,199.894 84.950,200.511 85.566 C 200.903 85.957,200.928 87.548,200.987 116.877 C 201.057 151.081,201.159 148.823,199.532 149.072 L 198.614 149.212 199.579 149.245 C 201.437 149.308,201.283 152.335,201.216 117.005 C 201.157 86.084,201.147 85.456,200.707 85.134 C 199.931 84.567,184.405 84.658,183.693 85.235 M299.538 87.926 C 299.541 88.434,299.588 88.615,299.644 88.328 C 299.699 88.040,299.697 87.624,299.639 87.403 C 299.581 87.182,299.536 87.418,299.538 87.926 M217.704 89.512 C 217.690 89.749,217.868 90.321,218.100 90.783 C 218.333 91.245,218.775 92.140,219.082 92.771 C 219.390 93.402,219.854 94.182,220.113 94.504 C 220.372 94.826,220.708 95.376,220.859 95.725 C 221.010 96.075,221.240 96.360,221.370 96.360 C 221.500 96.360,221.606 96.475,221.606 96.615 C 221.606 97.283,226.082 102.057,228.300 103.755 C 229.925 104.999,230.292 105.267,230.736 105.538 C 231.591 106.060,233.965 107.187,234.547 107.348 C 234.864 107.435,235.293 107.655,235.500 107.836 C 235.707 108.017,236.279 108.213,236.771 108.271 C 237.494 108.357,237.555 108.338,237.088 108.172 C 236.771 108.060,236.199 107.800,235.817 107.596 C 235.436 107.391,235.042 107.223,234.941 107.223 C 234.770 107.221,232.767 106.266,231.196 105.437 C 230.815 105.236,230.191 104.822,229.809 104.518 C 229.428 104.213,228.701 103.631,228.193 103.224 C 225.614 101.157,221.943 97.106,220.821 95.090 C 220.609 94.708,220.081 93.824,219.649 93.125 C 219.217 92.426,218.797 91.594,218.715 91.277 C 218.633 90.959,218.429 90.543,218.261 90.352 C 218.094 90.162,217.906 89.798,217.844 89.544 C 217.742 89.127,217.729 89.124,217.704 89.512 M299.538 95.552 C 299.541 96.060,299.588 96.241,299.644 95.953 C 299.699 95.666,299.697 95.250,299.639 95.029 C 299.581 94.808,299.536 95.043,299.538 95.552 M299.467 126.632 C 299.317 160.273,299.512 157.879,296.830 159.106 C 295.966 159.502,295.805 159.643,296.203 159.658 C 297.360 159.698,298.629 158.473,299.206 156.758 L 299.740 155.170 299.668 126.516 L 299.596 97.863 299.467 126.632 M160.710 119.006 C 160.710 127.712,160.739 131.274,160.774 126.921 C 160.809 122.568,160.809 115.445,160.774 111.092 C 160.739 106.739,160.710 110.300,160.710 119.006 M238.590 108.817 C 239.972 109.451,244.571 110.065,246.844 109.920 C 250.978 109.657,250.572 109.417,245.960 109.398 C 241.867 109.382,241.206 109.325,239.926 108.878 C 238.184 108.270,237.310 108.230,238.590 108.817 M251.129 109.464 C 251.417 109.520,251.833 109.518,252.054 109.460 C 252.274 109.402,252.039 109.357,251.531 109.359 C 251.023 109.362,250.842 109.409,251.129 109.464 M235.124 116.258 C 213.429 116.438,215.462 116.369,214.883 116.949 C 214.255 117.577,214.274 125.410,214.905 126.035 C 215.388 126.514,280.791 126.693,281.629 126.217 C 282.138 125.929,282.149 125.835,282.149 121.756 C 282.149 117.404,282.015 116.696,281.191 116.696 C 280.729 116.696,280.731 116.711,281.257 117.137 C 282.053 117.781,282.247 124.787,281.495 125.716 L 281.034 126.285 248.258 126.216 C 219.657 126.156,215.438 126.103,215.136 125.804 C 214.509 125.184,214.492 117.801,215.117 117.177 L 215.598 116.696 248.122 116.661 C 268.381 116.639,279.035 116.556,276.372 116.440 C 270.100 116.169,254.282 116.099,235.124 116.258 M219.272 128.018 C 215.211 128.141,214.658 128.291,214.689 129.260 L 214.705 129.752 214.944 129.258 C 215.098 128.940,215.483 128.715,216.026 128.626 C 219.416 128.068,266.293 128.345,266.995 128.927 C 267.553 129.391,267.538 137.289,266.978 137.753 C 266.588 138.077,216.911 138.392,215.662 138.078 C 215.333 137.996,215.069 137.679,214.931 137.201 L 214.715 136.453 214.694 137.158 C 214.683 137.545,214.798 137.987,214.951 138.140 C 215.366 138.555,266.307 138.534,267.129 138.118 L 267.707 137.826 267.769 133.505 C 267.845 128.292,267.882 128.371,265.244 128.153 C 263.104 127.976,224.430 127.863,219.272 128.018 M178.229 129.058 C 178.231 129.694,178.276 129.926,178.329 129.575 C 178.382 129.224,178.380 128.704,178.326 128.420 C 178.271 128.135,178.227 128.423,178.229 129.058 M214.534 132.987 C 214.534 134.766,214.570 135.463,214.614 134.536 C 214.658 133.609,214.658 132.154,214.614 131.301 C 214.569 130.449,214.533 131.207,214.534 132.987 M178.217 133.564 C 178.217 134.009,178.264 134.191,178.322 133.969 C 178.380 133.746,178.380 133.382,178.322 133.160 C 178.264 132.938,178.217 133.120,178.217 133.564 M178.217 141.664 C 178.178 146.783,178.087 148.799,177.886 149.001 C 177.572 149.315,161.623 149.407,161.137 149.097 C 160.987 149.002,160.823 148.457,160.773 147.888 L 160.682 146.852 160.641 147.921 C 160.614 148.634,160.717 149.087,160.951 149.281 C 161.455 149.699,177.684 149.622,178.109 149.199 C 178.334 148.974,178.386 147.285,178.336 141.756 L 178.272 134.604 178.217 141.664 M215.375 140.939 C 214.609 141.144,214.485 141.722,214.507 145.003 L 214.525 147.776 214.657 144.864 C 214.740 143.038,214.898 141.822,215.081 141.602 C 215.719 140.835,257.471 140.783,258.518 141.548 C 259.090 141.966,259.273 149.353,258.728 150.087 C 258.027 151.033,215.796 151.083,215.212 150.139 C 215.130 150.005,214.985 149.575,214.891 149.183 L 214.721 148.469 214.697 149.300 C 214.645 151.138,212.938 151.002,237.055 151.079 L 258.463 151.148 258.868 150.649 C 259.415 149.975,259.480 142.024,258.944 141.292 C 258.610 140.835,217.018 140.498,215.375 140.939 M160.447 142.577 C 160.447 143.530,160.488 143.920,160.538 143.443 C 160.588 142.966,160.588 142.187,160.538 141.710 C 160.488 141.233,160.447 141.623,160.447 142.577 M189.313 149.450 C 190.298 149.493,191.909 149.493,192.894 149.450 C 193.879 149.406,193.073 149.371,191.103 149.371 C 189.133 149.371,188.328 149.406,189.313 149.450 M89.493 158.637 C 89.564 159.604,90.583 159.810,90.583 158.857 C 90.583 158.355,90.497 158.259,90.132 158.354 C 89.884 158.419,89.628 158.353,89.562 158.208 C 89.496 158.062,89.465 158.255,89.493 158.637 M309.417 159.926 C 309.417 160.520,309.497 160.621,309.918 160.559 C 310.699 160.444,310.765 159.331,309.995 159.267 C 309.493 159.226,309.417 159.313,309.417 159.926 M155.209 159.850 C 179.887 159.882,220.338 159.882,245.100 159.850 C 269.862 159.817,249.671 159.791,200.231 159.791 C 150.791 159.791,130.532 159.817,155.209 159.850 M292.146 159.842 C 292.498 159.895,293.018 159.894,293.302 159.839 C 293.586 159.784,293.299 159.741,292.663 159.743 C 292.028 159.744,291.795 159.789,292.146 159.842 M196.007 161.243 C 195.128 161.385,194.294 162.414,194.204 163.469 L 194.123 164.414 194.306 163.571 C 194.665 161.917,196.149 161.138,197.334 161.981 C 198.677 162.938,198.718 164.045,197.458 165.306 C 197.249 165.514,197.195 165.685,197.337 165.685 C 197.830 165.685,198.714 164.421,198.722 163.708 C 198.734 162.488,197.158 161.057,196.007 161.243 M194.339 164.637 C 194.339 164.865,195.300 165.724,195.421 165.604 C 195.486 165.538,195.472 165.374,195.389 165.239 C 195.213 164.955,194.339 164.453,194.339 164.637 M95.821 167.687 C 95.549 167.960,95.657 168.458,95.989 168.458 C 96.258 168.458,96.592 167.999,96.592 167.630 C 96.592 167.474,95.990 167.519,95.821 167.687 M99.690 169.701 C 99.491 170.218,99.776 170.537,100.434 170.537 C 100.904 170.537,101.000 170.438,100.940 170.017 C 100.852 169.398,99.899 169.157,99.690 169.701 M299.378 169.561 C 299.006 169.933,299.284 170.537,299.827 170.537 C 300.238 170.537,300.404 170.412,300.404 170.102 C 300.404 169.687,299.650 169.289,299.378 169.561 M218.533 173.687 C 218.062 174.158,218.373 175.390,218.963 175.390 C 219.505 175.390,219.548 175.318,219.482 174.525 C 219.414 173.701,218.939 173.281,218.533 173.687 M171.613 192.076 C 171.531 192.389,171.640 192.490,172.061 192.490 C 172.457 192.490,172.617 192.361,172.617 192.042 C 172.617 191.465,171.765 191.494,171.613 192.076 M219.449 191.720 C 219.056 192.113,219.313 192.721,219.873 192.721 C 220.335 192.721,220.451 192.605,220.451 192.143 C 220.451 191.584,219.842 191.326,219.449 191.720 M170.017 192.649 C 169.442 192.800,169.491 193.645,170.075 193.645 C 170.414 193.645,170.537 193.491,170.537 193.068 C 170.537 192.750,170.511 192.502,170.479 192.517 C 170.448 192.531,170.240 192.591,170.017 192.649 M221.298 192.644 C 220.863 193.079,221.168 193.645,221.837 193.645 C 222.363 193.645,222.530 193.540,222.530 193.208 C 222.530 192.655,221.677 192.264,221.298 192.644 M167.687 193.799 C 167.336 194.150,167.567 194.570,168.111 194.570 C 168.535 194.570,168.689 194.446,168.689 194.107 C 168.689 193.657,168.032 193.455,167.687 193.799 M165.531 194.932 C 165.455 195.131,165.499 195.401,165.629 195.531 C 166.013 195.915,166.718 195.647,166.798 195.087 C 166.888 194.461,165.765 194.324,165.531 194.932 M230.511 197.792 C 230.284 198.159,230.569 198.473,231.092 198.434 C 231.374 198.412,231.530 198.260,231.489 198.047 C 231.408 197.625,230.724 197.447,230.511 197.792 M232.236 199.060 C 232.236 199.543,232.346 199.653,232.829 199.653 C 233.313 199.653,233.410 199.557,233.349 199.133 C 233.236 198.336,232.236 198.269,232.236 199.060 " stroke="none" fill="#bce4f3" fill-rule="evenodd"></path></g></svg>