<?xml version="1.0" standalone="no"?>
<!DOCTYPE svg PUBLIC "-//W3C//DTD SVG 20010904//EN"
 "http://www.w3.org/TR/2001/REC-SVG-20010904/DTD/svg10.dtd">
<svg version="1.0" xmlns="http://www.w3.org/2000/svg"
 width="512.000000pt" height="512.000000pt" viewBox="0 0 512.000000 512.000000"
 preserveAspectRatio="xMidYMid meet">

<g transform="translate(0.000000,512.000000) scale(0.100000,-0.100000)"
fill="#000000" stroke="none">
<path d="M2500 5004 c-138 -23 -240 -64 -343 -138 -153 -108 -323 -327 -435
-556 -30 -63 -56 -115 -56 -116 -1 -1 -44 5 -96 12 -114 15 -378 17 -475 4
-211 -30 -371 -100 -491 -214 -139 -130 -193 -252 -201 -451 -6 -143 10 -244
63 -397 58 -166 178 -386 304 -555 l24 -33 -24 -32 c-126 -170 -246 -390 -304
-556 -53 -153 -69 -254 -63 -397 8 -198 61 -319 199 -450 118 -114 282 -185
493 -215 97 -13 361 -11 475 4 52 7 95 13 96 12 0 -1 26 -53 57 -117 109 -226
282 -447 434 -555 73 -53 187 -106 263 -125 71 -16 209 -16 280 0 76 19 190
72 263 125 153 108 323 327 435 556 30 63 56 115 56 116 1 1 44 -5 96 -12 114
-15 378 -17 475 -4 119 17 226 49 325 97 80 38 109 59 181 132 67 67 94 103
122 161 115 243 83 543 -94 890 -52 102 -140 245 -209 338 l-24 32 24 33 c69
92 157 235 209 337 177 347 209 647 94 890 -28 58 -55 94 -122 161 -72 73
-101 94 -181 132 -99 48 -206 80 -325 97 -97 13 -361 11 -475 -4 -52 -7 -95
-13 -96 -12 0 1 -26 53 -56 116 -112 229 -282 448 -435 556 -69 50 -186 106
-253 122 -53 13 -175 22 -210 16z m221 -188 c184 -63 365 -254 516 -541 30
-59 53 -108 52 -110 -2 -2 -42 -13 -89 -25 -134 -34 -322 -97 -488 -162 l-152
-61 -133 53 c-168 68 -331 123 -477 162 -63 16 -117 32 -118 33 -7 7 101 207
156 288 158 236 319 356 522 391 46 7 144 -6 211 -28z m-1198 -765 c38 -5 71
-12 74 -14 2 -3 -11 -54 -30 -114 -67 -207 -134 -501 -153 -669 -6 -61 -7 -62
-78 -122 -97 -82 -266 -248 -362 -355 l-80 -88 -73 111 c-90 138 -192 346
-227 465 -31 108 -43 279 -25 367 45 214 227 363 504 413 83 15 350 18 450 6z
m2592 -20 c240 -63 395 -206 436 -399 18 -88 6 -259 -25 -367 -35 -119 -137
-327 -227 -465 l-73 -111 -80 88 c-97 108 -267 274 -362 355 -72 60 -72 61
-78 122 -19 168 -86 462 -153 669 -19 60 -32 111 -29 114 14 14 138 21 316 19
160 -3 209 -7 275 -25z m-2143 -72 c123 -35 388 -126 388 -134 0 -2 -69 -42
-154 -89 -177 -98 -378 -225 -516 -325 -52 -38 -96 -65 -98 -61 -6 16 70 340
107 460 70 222 59 201 100 194 20 -4 98 -24 173 -45z m1425 -76 c23 -71 51
-162 62 -203 23 -84 74 -331 69 -335 -2 -1 -52 33 -113 77 -139 100 -328 218
-514 322 l-144 80 44 19 c112 47 495 165 544 167 6 0 29 -57 52 -127z m-728
-198 c251 -125 512 -287 748 -464 118 -87 144 -111 148 -136 32 -190 32 -860
0 -1050 -4 -25 -30 -49 -148 -136 -236 -177 -497 -339 -748 -464 l-109 -55
-109 55 c-251 125 -512 287 -748 464 -118 87 -144 111 -148 136 -32 190 -32
860 0 1050 4 25 30 48 148 136 171 128 251 182 421 284 102 61 421 234 434
235 1 0 51 -25 111 -55z m-1294 -1124 l0 -389 -25 18 c-31 22 -237 235 -304
313 l-48 57 48 58 c50 59 317 332 325 332 2 0 4 -175 4 -389z m2525 242 c69
-70 147 -154 174 -186 l48 -57 -48 -57 c-64 -76 -294 -312 -314 -323 -13 -7
-15 36 -15 380 0 344 2 387 15 380 9 -5 72 -66 140 -137z m-2741 -651 c58 -57
138 -131 177 -164 71 -60 72 -61 78 -122 19 -168 86 -462 153 -669 19 -60 32
-111 30 -114 -15 -14 -183 -24 -337 -20 -203 5 -286 23 -418 88 -145 71 -242
192 -273 337 -18 88 -6 259 25 367 35 119 137 327 227 465 l73 111 80 -88 c43
-48 127 -134 185 -191z m3156 143 c79 -121 178 -330 211 -440 31 -108 43 -279
25 -367 -30 -144 -129 -267 -273 -337 -132 -65 -215 -83 -418 -88 -154 -4
-322 6 -337 20 -2 3 11 54 30 114 67 208 134 501 153 671 5 46 12 66 27 77 56
39 278 251 377 361 130 142 106 144 205 -11z m-2560 -632 c138 -96 291 -190
461 -285 79 -44 144 -81 144 -83 0 -15 -455 -160 -561 -179 l-36 -6 -41 127
c-61 191 -97 335 -127 507 l-7 40 34 -26 c18 -14 78 -56 133 -95z m1750 -19
c-31 -154 -53 -236 -108 -407 l-41 -127 -35 6 c-106 19 -561 164 -561 179 0 2
69 42 154 89 177 98 378 225 516 325 52 38 96 67 98 66 2 -1 -9 -61 -23 -131z
m-816 -493 c135 -56 383 -139 511 -171 47 -12 87 -23 89 -25 6 -6 -104 -209
-152 -282 -199 -299 -435 -437 -666 -389 -176 37 -336 164 -483 383 -55 81
-163 281 -156 288 1 1 55 17 118 33 142 38 374 117 500 171 52 22 100 40 107
41 7 0 66 -22 132 -49z"/>
<path d="M2411 3339 c-224 -24 -393 -103 -430 -202 -18 -46 -15 -1118 3 -1160
82 -198 625 -273 987 -137 67 24 146 90 165 137 18 42 21 1114 3 1160 -38 103
-205 178 -448 202 -116 12 -159 12 -280 0z m359 -170 c73 -13 171 -47 200 -69
l24 -18 -35 -21 c-163 -101 -592 -107 -779 -11 -23 12 -40 26 -37 33 11 35
152 83 287 98 87 9 261 3 340 -12z m-570 -300 c93 -29 239 -49 360 -49 121 0
267 20 360 49 36 12 66 21 68 21 2 0 2 -37 0 -82 l-3 -82 -53 -27 c-90 -45
-198 -63 -372 -64 -174 0 -280 18 -372 64 l-53 27 -3 82 c-2 45 -2 82 0 82 2
0 32 -9 68 -21z m22 -353 c96 -28 230 -46 338 -46 108 0 242 18 338 46 45 13
84 24 87 24 3 0 5 -36 5 -81 l0 -80 -62 -29 c-101 -47 -193 -63 -368 -63 -175
0 -267 16 -367 63 l-63 29 0 80 c0 45 2 81 5 81 3 0 42 -11 87 -24z m93 -372
c55 -11 129 -17 235 -17 165 -1 261 11 373 48 l68 22 -3 -86 -3 -86 -55 -27
c-188 -92 -606 -85 -767 14 -33 20 -33 20 -33 102 l0 83 53 -18 c28 -9 88 -25
132 -35z"/>
</g>
</svg>
