<?xml version="1.0" standalone="no"?>
<!DOCTYPE svg PUBLIC "-//W3C//DTD SVG 20010904//EN"
 "http://www.w3.org/TR/2001/REC-SVG-20010904/DTD/svg10.dtd">
<svg version="1.0" xmlns="http://www.w3.org/2000/svg"
 width="900.000000pt" height="920.000000pt" viewBox="0 0 900.000000 920.000000"
 preserveAspectRatio="xMidYMid meet">

<g transform="translate(0.000000,920.000000) scale(0.100000,-0.100000)"
fill="#000000" stroke="none">
<path d="M3205 9194 c-470 -29 -721 -62 -1045 -136 -536 -122 -952 -337 -1082
-558 -57 -98 -59 -118 -56 -587 l3 -428 34 -70 c124 -253 563 -484 1156 -609
403 -85 688 -115 1177 -123 l347 -6 5 24 c22 107 32 142 57 197 171 381 769
688 1609 826 125 21 469 66 503 66 4 0 7 136 5 303 l-3 302 -34 69 c-175 357
-926 636 -1921 716 -139 11 -648 21 -755 14z"/>
<path d="M6180 7460 c-535 -33 -1025 -125 -1395 -262 -341 -126 -577 -295
-662 -474 l-38 -79 0 -229 0 -228 110 -38 c400 -136 700 -318 865 -526 110
-139 180 -321 180 -470 0 -71 1 -73 28 -78 232 -47 488 -84 732 -108 211 -20
909 -17 1130 5 521 53 948 150 1278 293 332 143 528 316 571 504 16 71 14 823
-3 885 -30 116 -100 206 -238 310 -318 241 -918 415 -1648 480 -212 19 -711
27 -910 15z"/>
<path d="M1020 6663 c0 -377 1 -393 19 -393 10 0 74 11 142 25 233 48 710 105
871 105 17 0 29 2 27 5 -3 2 -61 21 -130 41 -239 69 -481 172 -629 269 -111
72 -233 198 -270 276 l-29 64 -1 -392z"/>
<path d="M2145 6083 c-560 -34 -953 -100 -1327 -223 -414 -136 -677 -308 -774
-506 l-39 -78 0 -446 0 -446 39 -79 c163 -329 834 -604 1695 -694 883 -93
1800 -12 2427 215 442 159 702 371 734 597 12 80 12 736 0 816 -12 89 -52 162
-134 249 -348 367 -1292 608 -2346 600 -124 -1 -247 -3 -275 -5z"/>
<path d="M8982 5322 c-8 -45 -64 -135 -124 -197 -303 -320 -1035 -540 -1978
-596 -467 -27 -1099 15 -1519 102 -52 10 -100 19 -108 19 -11 0 -13 -111 -13
-634 0 -596 1 -635 18 -640 37 -11 272 -55 377 -70 861 -123 1851 -58 2533
165 160 53 346 132 442 189 143 84 269 197 323 290 56 97 57 110 54 776 -1
335 -3 603 -5 596z"/>
<path d="M0 3339 c0 -590 1 -620 20 -682 100 -324 694 -606 1529 -727 293 -42
423 -52 799 -57 641 -9 1117 44 1594 178 575 161 920 401 958 665 9 68 14
1207 4 1216 -3 4 -22 -25 -41 -63 -134 -268 -633 -507 -1323 -633 -516 -94
-1144 -116 -1727 -61 -907 87 -1612 367 -1776 705 l-37 75 0 -616z"/>
<path d="M8952 3529 c-133 -281 -668 -529 -1404 -654 -331 -55 -528 -69 -998
-70 -282 0 -481 5 -565 13 -226 22 -445 53 -595 83 -79 16 -145 29 -147 29 -2
0 -3 -286 -3 -635 l0 -635 23 -10 c24 -10 325 -63 455 -80 335 -44 852 -62
1197 -41 817 49 1508 240 1848 510 122 97 194 199 217 307 7 32 9 262 8 650
l-3 601 -33 -68z"/>
<path d="M3 1589 l2 -635 38 -77 c164 -332 822 -600 1707 -696 999 -108 2055
20 2670 325 234 116 374 234 442 372 l33 67 3 640 2 640 -30 -64 c-39 -82 -96
-150 -187 -222 -338 -269 -1034 -460 -1848 -510 -237 -14 -772 -6 -984 16
-957 97 -1649 367 -1817 710 l-34 70 3 -636z"/>
</g>
</svg>
