<?xml version="1.0" standalone="no"?>
<!DOCTYPE svg PUBLIC "-//W3C//DTD SVG 20010904//EN"
 "http://www.w3.org/TR/2001/REC-SVG-20010904/DTD/svg10.dtd">
<svg version="1.0" xmlns="http://www.w3.org/2000/svg"
 width="900.000000pt" height="820.000000pt" viewBox="0 0 900.000000 820.000000"
 preserveAspectRatio="xMidYMid meet">

<g transform="translate(0.000000,820.000000) scale(0.100000,-0.100000)"
fill="#000000" stroke="none">
<path d="M3423 8166 l-28 -24 -5 -669 -5 -668 -124 -149 -124 -148 19 -46 c12
-29 33 -55 53 -69 l34 -23 1231 0 c1218 0 1231 0 1264 20 34 21 78 101 68 123
-3 7 -59 77 -125 156 l-121 145 0 659 0 659 -29 29 -29 29 -1026 0 -1025 0
-28 -24z m1975 -91 l22 -26 0 -550 0 -550 -25 -24 -24 -25 -885 0 c-627 0
-892 3 -909 11 -14 6 -30 22 -36 36 -8 16 -11 189 -11 562 0 606 -4 577 75
590 21 3 428 5 904 4 l866 -2 23 -26z m-558 -1509 c21 -22 37 -43 34 -45 -6
-6 -786 -2 -792 3 -8 9 61 75 81 78 12 2 161 4 330 4 l308 1 39 -41z m-150
-111 c26 -31 0 -35 -215 -35 -218 0 -252 6 -210 37 28 20 408 19 425 -2z"/>
<path d="M3009 7106 c-887 -389 -1596 -1114 -1953 -1999 -135 -333 -212 -647
-251 -1012 -19 -181 -19 -541 0 -710 8 -71 15 -133 15 -137 0 -12 270 -10 270
1 0 5 -5 43 -10 83 -31 228 -29 626 6 863 80 557 297 1091 622 1536 318 433
740 794 1209 1033 84 43 121 68 147 101 l36 43 0 116 c0 64 -3 116 -7 116 -5
0 -42 -16 -84 -34z"/>
<path d="M5850 7025 l0 -116 38 -46 c20 -25 56 -53 78 -63 23 -10 99 -51 170
-90 462 -259 849 -609 1150 -1040 485 -694 699 -1577 578 -2387 l-6 -43 135 0
136 0 6 43 c27 203 34 572 14 787 -64 694 -344 1390 -778 1934 -364 457 -834
828 -1346 1064 -195 89 -175 94 -175 -43z"/>
<path d="M304 2950 c-56 -22 -54 1 -54 -711 l0 -657 -125 -151 c-69 -83 -125
-159 -125 -169 0 -25 38 -80 73 -106 l28 -21 1216 -3 c1184 -2 1216 -2 1259
17 48 22 84 70 84 112 0 19 -33 67 -120 170 l-120 144 0 658 0 659 -34 34 -34
34 -1013 -1 c-558 0 -1024 -4 -1035 -9z m1937 -93 c38 -29 39 -42 39 -597 l0
-541 -24 -24 c-13 -13 -39 -26 -57 -30 -19 -3 -422 -4 -896 -3 l-861 3 -26 24
-26 24 0 554 0 554 25 24 24 25 893 0 c686 -1 897 -3 909 -13z m-542 -1528
c18 -22 31 -42 29 -45 -3 -2 -184 -3 -402 -2 l-397 3 36 43 37 42 331 0 332 0
34 -41z m-154 -124 c0 -19 -7 -20 -205 -22 -113 -2 -211 1 -219 6 -8 5 -11 16
-8 25 6 15 31 16 219 14 205 -3 213 -4 213 -23z"/>
<path d="M6614 2926 l-34 -34 0 -658 0 -659 -120 -143 c-87 -105 -120 -151
-120 -170 0 -43 36 -91 84 -113 43 -19 75 -19 1259 -17 l1216 3 28 21 c35 26
73 81 73 106 0 11 -56 87 -125 168 l-125 149 0 656 c0 431 -4 663 -10 676 -28
51 7 49 -1081 49 l-1011 0 -34 -34z m1971 -81 l25 -24 0 -554 0 -554 -26 -24
-26 -24 -861 -3 c-474 -1 -877 0 -896 3 -18 4 -44 17 -57 30 l-24 24 0 541 c0
555 1 568 39 597 12 10 223 12 909 13 l893 0 24 -25z m-550 -1517 l36 -43
-397 -3 c-218 -1 -399 0 -402 2 -2 3 11 23 29 45 l34 41 332 0 331 0 37 -42z
m-148 -114 c3 -9 0 -20 -8 -25 -8 -5 -106 -8 -219 -6 -204 2 -205 2 -208 25
l-3 22 216 0 c188 0 216 -2 222 -16z"/>
<path d="M6240 799 c-380 -232 -815 -388 -1285 -461 -167 -26 -605 -36 -793
-19 -518 49 -1006 214 -1497 507 l-50 30 -220 -5 -220 -6 95 -71 c428 -321
956 -559 1473 -664 252 -51 405 -65 732 -64 335 0 496 15 757 70 537 113 1099
373 1497 694 l44 35 -194 6 c-107 3 -201 8 -209 12 -9 4 -60 -21 -130 -64z"/>
</g>
</svg>
